<?xml version="1.0" encoding="utf-8"?>
<!-- Generator: Adobe Illustrator 19.0.0, SVG Export Plug-In . SVG Version: 6.00 Build 0)  -->
<svg version="1.1" id="Layer_1" xmlns="http://www.w3.org/2000/svg" xmlns:xlink="http://www.w3.org/1999/xlink" x="0px" y="0px"
	 viewBox="0 0 120 120" enable-background="new 0 0 120 120" xml:space="preserve">
<rect id="XMLID_8_" fill="none" width="120" height="120"/>
<rect id="XMLID_7_" fill="none" width="120" height="120"/>
<g id="XMLID_6_">
	<path id="XMLID_21_" fill="#D25235" d="M0,90c0,16.5,13.5,30,30,30h60c16.5,0,30-13.5,30-30V30c0-16.5-13.5-30-30-30H30
		C13.5,0,0,13.5,0,30V90z"/>
</g>
<g>
	<path fill="#191919" d="M43.4,77.6h0.2v0.2h0.2V78H44v0.2h0.2v0.2h0.2v0.2h0.2v0.2h0.2v0.2h0.2v0.2h0.2v0.2h0.2v0.2h0.2v0.2h0.2
		v0.2h0.2V80H46v0.2h0.2v0.2h0.2v0.2h0.2v0.2h0.2v0.2H47v0.2h0.2v0.2h0.2v0.2h0.2v0.2h0.2v0.2h0.2V82h0.2v0.2h0.2v0.2h0.2v0.2h0.2
		v0.2H49V83h0.2v0.2h0.4v0.2h1.9v-0.2h0.4V83H52v-0.2h0.2v-0.2h0.2v-0.2h0.2V82h0.2v-0.4h0.2v-0.9h0.2v-0.9h0.2v-0.9h0.2V78h0.2
		v-0.9h0.2v-0.9h0.2v-0.9h0.2v-0.9h0.2V74h11.2v0.4h0.2v0.9H66v0.9h0.2v0.9h0.2V78h0.2v0.9h0.2v0.9h0.2v0.9h0.2v0.9h0.2V82h0.2v0.4
		h0.2v0.2h0.2v0.2H68V83h0.2v0.2h0.4v0.2h1.9v-0.2h0.4V83H71v-0.2h0.4v-0.2h0.2v-0.2h0.2v-0.2h0.2V82h0.2v-0.2h0.2v-0.2h0.2v-0.2
		h0.2v-0.2h0.2v-0.2h0.2v-0.2h0.2v-0.2h0.2v-0.2h0.2v-0.2h0.2v-0.2H74V80h0.2v-0.2h0.2v-0.2h0.2v-0.2h0.2v-0.2h0.2v-0.2h0.2v-0.2
		h0.2v-0.2h0.2v-0.2h0.2v-0.2h0.2v-0.2h0.2V78h0.2v-0.2h0.2v-0.2h0.2v11.9h-0.2v0.2h-0.2v0.2h-0.2v0.2h-0.2v0.2h-0.2v0.2h-0.2v0.2
		h-0.2v0.2h-0.2V91h-0.2v0.2h-0.2v0.2h-0.2v0.2h-0.2v0.2h-0.2v0.2H74v0.2h-0.2v0.2h-0.2v0.2h-0.2v0.2h-0.2v0.2h-0.2V93h-0.2v0.2
		h-0.2v0.2h-0.2v0.2h-0.2v0.2h-0.2V94h-0.2v0.2h-0.2v0.2h-0.2v0.2h-0.2v0.2h-0.2v0.2H71v0.2h-0.2v0.2h-0.2v0.2h-0.2v0.2h-0.2v0.2
		h-0.2V96h-0.2v0.2h-0.2v0.2h-0.2v0.2h-0.2v0.2h-0.2v0.2H69v0.2h-0.2v0.2h-0.2v0.2H51.4v-0.2h-0.2v-0.2h-0.2v-0.2h-0.2v-0.2h-0.2
		v-0.2h-0.2v-0.2h-0.2v-0.2h-0.2V96H50v-0.2h-0.2v-0.2h-0.2v-0.2h-0.2v-0.2h-0.2v-0.2H49v-0.2h-0.2v-0.2h-0.2v-0.2h-0.2v-0.2h-0.2
		v-0.2h-0.2V94h-0.2v-0.2h-0.2v-0.2h-0.2v-0.2h-0.2v-0.2h-0.2V93H47v-0.2h-0.2v-0.2h-0.2v-0.2h-0.2v-0.2h-0.2v-0.2H46v-0.2h-0.2
		v-0.2h-0.2v-0.2h-0.2v-0.2h-0.2v-0.2h-0.2V91h-0.2v-0.2h-0.2v-0.2h-0.2v-0.2h-0.2v-0.2h-0.2v-0.2H44v-0.2h-0.2v-0.2h-0.2v-0.2h-0.2
		L43.4,77.6L43.4,77.6z M51.8,69.4h-0.6v0.2h-0.2v0.2h-0.4v0.2h-0.2v0.2h-0.2v0.4h-0.2v0.4h-0.2v0.9h-0.2v0.9h-0.2v0.9h-0.2v0.9
		h-0.2v0.9H49v0.7h-0.2V76h-0.2v-0.2h-0.2v-0.2h-0.2v-0.2h-0.2v-0.2h-0.2v-0.2h-0.2v-0.2h-0.2v-0.2h-0.2v-0.2h-0.2v-0.2H47v-0.2
		h-0.2V74h-0.2v-0.2h-0.2v-0.2h-0.2v-0.2H46v-0.2h-0.2v-0.2h-0.2v-0.2h-0.2v-0.2h-0.2v-0.2h-0.2v-0.2h-0.2v-0.2h-0.2V72h-0.2v-0.2
		h-0.2v-0.2h-0.2v-0.2H44v-0.2h-0.2V71h-0.2v-0.2h-0.2V55.3H46v0.2h0.2v0.7h0.2v0.4h0.2v0.4h0.2v0.2h0.2v0.2h0.2v0.2h0.2v0.2h0.4
		v0.2h0.4V58h1.9v-0.2h0.4v-0.2h0.4v-0.2h0.2v-0.2H51v-0.2h0.2v-0.2h0.2v-0.2h0.2v-0.4h0.2v-0.7H52v-0.4h2.8v13.9h-3L51.8,69.4
		C51.8,69.4,51.8,69.4,51.8,69.4z M43.4,45.5H44v0.2h0.9v0.2h1.5v-0.2h1.1v-0.2h0.6v-0.2h0.4v-0.2H49V45h0.2v-0.2h0.4v-0.2h0.2v-0.2
		h0.4v-0.2h0.2v-0.2h0.4v0.2h0.2v0.2h0.2v0.2h0.4v0.2h0.2V45H52v0.2h0.4v0.2h0.6v0.2h0.6v0.2h1.1v0.2h1.3v-0.2H57v-0.2h0.6v-0.2h0.6
		v-0.2h0.4V45h0.4v-0.2h0.2v-0.2h0.4v-0.2h0.2v-0.2h0.2v-0.2h0.4v0.2h0.2v0.2h0.2v0.2h0.4v0.2h0.2V45h0.4v0.2h0.4v0.2h0.6v0.2H63
		v0.2h1.1v0.2h1.3v-0.2h1.1v-0.2h0.6v-0.2h0.6v-0.2H68V45h0.4v-0.2h0.2v-0.2h0.4v-0.2h0.2v-0.2h0.2v-0.2h0.4v0.2h0.2v0.2h0.2v0.2
		h0.4v0.2h0.4V45H71v0.2h0.6v0.2h0.4v0.2h0.6v0.2h1.1v0.2h1.5v-0.2H76v-0.2h0.6v5H64.8v0.2h-0.4v0.2h-0.2V51h-0.2v0.2h-0.2v0.2h-0.2
		v0.2h-0.2v0.4h-0.2v1.8h0.2v0.4h0.2v0.2h0.2v0.2h0.2v0.2h0.2v0.2h0.4v0.2h0.6v0.2H68v0.5h0.2v0.5h0.2v0.4h0.2v0.2h0.2v0.2h0.2v0.2
		h0.2v0.2h0.2v0.2h0.4v0.2h0.4V58h1.9v-0.2h0.4v-0.2h0.4v-0.2h0.2v-0.2H73v-0.2h0.2v-0.2h0.2v-0.4h0.2v-0.4h0.2v-0.7H74v-0.2h2.6
		v15.6h-0.2V71h-0.2v0.2H76v0.2h-0.2v0.2h-0.2v0.2h-0.2v0.2h-0.2v0.2h-0.2v0.2h-0.2v0.2h-0.2v0.2h-0.2v0.2h-0.2V73h-0.2v0.2H74v0.2
		h-0.2v0.2h-0.2v0.2h-0.2V74h-0.2v0.2H73v0.2h-0.2v0.2h-0.2v0.2h-0.2v0.2h-0.2v0.2h-0.2v0.2h-0.2v0.2h-0.2v0.2h-0.2v0.2h-0.2V76
		h-0.2v0.2H71v-0.7h-0.2v-0.9h-0.2v-0.9h-0.2v-0.9h-0.2v-0.9H70v-0.9h-0.2v-0.4h-0.2v-0.4h-0.2v-0.2h-0.2v-0.2h-0.4v-0.2h-0.2v-0.2
		h-0.6v-0.2h-8.6V52.3h-0.2v-0.5h-0.2v-0.2h-0.2v-0.4h-0.2V51h-0.2v-0.2h-0.4v-0.2h-0.4v-0.2H43.4L43.4,45.5
		C43.4,45.5,43.4,45.5,43.4,45.5z M40.3,36.5h-0.6v0.2h-0.2v0.2h-0.2v0.2h-0.2v0.2h-0.2v0.2h-0.2v0.4h-0.2v0.9h-0.2v30.1h-0.2v-0.2
		H38v-0.2h-0.4v-0.2h-0.2v-0.2h-0.2v-0.2h-0.2v-0.2h-0.2v-0.2h-0.2v-0.2h-0.2v-0.2h-0.2V67h-0.2v-0.2H36v-0.4h-0.2v-0.2h-0.2v-0.2
		h-0.2v-0.4h-0.2v-0.4H35V65h-0.2v-0.4h-0.2v-0.6h-0.2v-0.5h-0.2v-0.7h-0.2v-0.9h-0.2v-1.5h-0.2V48.8h0.2V43h0.2v-1.8h0.2v-1.3h0.2
		v-0.9h0.2v-0.7h0.2v-0.5H35v-0.5h0.2v-0.5h0.2v-0.4h0.2v-0.5h0.2v-0.4H36v-0.2h0.2v-0.4h0.2v-0.4h0.2v-0.2h0.2v-0.4h0.2v-0.2h0.2
		v-0.2h0.2v-0.4h0.2v-0.2h0.2v-0.2h0.2v-0.2H38v-0.2h0.2v-0.2h0.2V32h0.2v-0.2h0.4v-0.2h0.2v-0.2h0.2v-0.2h0.4V31h0.2v-0.2h0.4v-0.2
		h0.2v-0.2h0.4v-0.2h0.4v-0.2h0.4v-0.2h0.4v-0.2h0.4v-0.2h0.4v-0.2h0.6v-0.2h0.4V29h0.6v-0.2h0.6v-0.2h0.7v-0.2h0.7v-0.2H47v-0.2
		h0.9v-0.2h0.9v-0.2h1.3v-0.2h1.5v-0.2h2v-0.2h3.5V27h5.6v0.2h3.5v0.2h2v0.2h1.5v0.2h1.3v0.2h0.9v0.2H73v0.2h0.7v0.2h0.7v0.2h0.7
		v0.2h0.6V29h0.6v0.2h0.4v0.2h0.6v0.2h0.4v0.2h0.4v0.2h0.4v0.2h0.4v0.2h0.4v0.2h0.4v0.2h0.2v0.2h0.4V31h0.2v0.2h0.4v0.2h0.2v0.2H81
		v0.2h0.4V32h0.2v0.2h0.2v0.2H82v0.2h0.2v0.2h0.2v0.2h0.2v0.4h0.2v0.2h0.2v0.2h0.2v0.2h0.2v0.4h0.2v0.2h0.2v0.4h0.2v0.4H84v0.4h0.2
		v0.4h0.2v0.4h0.2v0.4h0.2v0.5H85v0.5h0.2v0.7h0.2v0.7h0.2V40h0.2v1.1h0.2V43h0.2V51h0.2v9.4h-0.2v1.5h-0.2v0.9h-0.2v0.7h-0.2v0.5
		h-0.2v0.6h-0.2V65H85v0.4h-0.2v0.4h-0.2v0.2h-0.2v0.4h-0.2v0.2H84v0.4h-0.2V67h-0.2v0.2h-0.2v0.2h-0.2v0.2h-0.2v0.2h-0.2v0.2h-0.2
		v0.2h-0.2v0.2h-0.2v0.2H82v0.2h-0.2v0.2h-0.4v-31h-0.2v-0.4H81v-0.2h-0.2v-0.2h-0.2v-0.2h-0.2v-0.2h-0.2v-0.2h-0.6v-0.2h-1.5v0.2
		h-0.4v0.2h-0.2v0.2h-0.4v0.2h-0.2v0.4h-0.2v0.4h-0.2v0.5h-0.2v1.1h-0.2v0.4h-0.2v0.4H76v0.2h-0.2v0.2h-0.2v0.2h-0.4v0.2h-1.9v-0.2
		H73v-0.2h-0.2v-0.2h-0.2v-0.2h-0.2V40h-0.2v-0.4h-0.2v-0.5h-0.2V38h-0.2v-0.5h-0.2v-0.2h-0.2v-0.2h-0.2v-0.2H71v-0.2h-0.4v-0.2
		h-0.4v-0.2h-1.5v0.2h-0.4v0.2H68v0.2h-0.2v0.2h-0.2v0.2h-0.2v0.4h-0.2v0.5h-0.2v1.3h-0.2v0.4h-0.2v0.4h-0.2v0.2h-0.2v0.2h-0.4v0.2
		h-0.4v0.2h-1.7v-0.2h-0.4v-0.2h-0.4v-0.2H63V40h-0.2v-0.2h-0.2v-0.5h-0.2V38h-0.2v-0.4H62v-0.4h-0.2v-0.2h-0.2v-0.2h-0.2v-0.2h-0.4
		v-0.2h-0.4v-0.2h-1.5v0.2h-0.4v0.2h-0.4v0.2h-0.2v0.2h-0.2v0.2h-0.2v0.4h-0.2V38h-0.2v1.3h-0.2v0.5h-0.2V40H57v0.4h-0.2v0.2h-0.4
		v0.2h-0.4v0.2h-1.9v-0.2H54v-0.2h-0.4v-0.2h-0.2v-0.2h-0.2v-0.4h-0.2v-0.4h-0.2v-1.3h-0.2v-0.5h-0.2v-0.2h-0.2v-0.4h-0.2v-0.2H52
		v-0.2h-0.4v-0.2h-0.4v-0.2h-1.5v0.2h-0.4v0.2H49v0.2h-0.2v0.2h-0.2v0.2h-0.2v0.2h-0.2v0.4h-0.2v1.3h-0.2v0.5h-0.2V40h-0.2v0.2h-0.2
		v0.2h-0.2v0.2h-0.2v0.2h-0.4v0.2h-1.9v-0.2h-0.4v-0.2h-0.2v-0.2H44v-0.2h-0.2v-0.4h-0.2v-0.4h-0.2v-1.1h-0.2v-0.5H43v-0.4h-0.2
		v-0.4h-0.2v-0.2h-0.4v-0.2h-0.2v-0.2h-0.6v-0.2h-1.3L40.3,36.5L40.3,36.5L40.3,36.5z M56.3,22.4h-3v0.2h-2v0.2h-1.5V23h-1.3v0.2
		h-1.1v0.2h-0.7v0.2h-0.9v0.2h-0.7v0.2h-0.7v0.2h-0.6v0.2h-0.7v0.2h-0.6v0.2h-0.6v0.2h-0.4V25h-0.6v0.2h-0.4v0.2h-0.4v0.2h-0.6v0.2
		h-0.4v0.2h-0.4v0.2h-0.2v0.2h-0.4v0.2h-0.4v0.2h-0.4v0.2h-0.2V27h-0.4v0.2h-0.2v0.2h-0.4v0.2h-0.2v0.2H36v0.2h-0.4v0.2h-0.2v0.2
		h-0.2v0.2H35v0.2h-0.2v0.2h-0.2V29h-0.2v0.2h-0.2v0.2h-0.2v0.2h-0.2v0.2h-0.2v0.2h-0.2v0.2h-0.2v0.2h-0.2v0.4H33v0.2h-0.2V31h-0.2
		v0.4h-0.2v0.2h-0.2v0.4h-0.2v0.4h-0.2v0.2h-0.2v0.4h-0.2v0.4h-0.2v0.4h-0.2V34h-0.2v0.6h-0.2v0.5h-0.2v0.4h-0.2V36h-0.2v0.7H30v0.7
		h-0.2v0.7h-0.2v1.1h-0.2v1.3h-0.2v1.7h-0.2v3.7h-0.2v15h0.2v1.5h0.2v1.1h0.2v0.7h0.2V65h0.2v0.6H30v0.5h0.2v0.4h0.2v0.4h0.2v0.5
		h0.2v0.4h0.2v0.2h0.2v0.4h0.2v0.4h0.2v0.2h0.2v0.4h0.2v0.2h0.2v0.2h0.2v0.4h0.2v0.2h0.2v0.2h0.2v0.2H33v0.2h0.2v0.2h0.2V71h0.2v0.2
		h0.2v0.2h0.2v0.2h0.2v0.2h0.2v0.2h0.2v0.2h0.4v0.2H35v0.2h0.2v0.2h0.4v0.2h0.2V73h0.4v0.2h0.2v0.2h0.4v0.2h0.4v0.2h0.4V74h0.4v0.2
		h0.4v0.2h0.2v16.1h0.2v0.9h0.2v0.4H39v0.2h0.2v0.2h0.2v0.2h0.2v0.2h0.2v0.2h0.2v0.2h0.2V93h0.2v0.2h0.2v0.2h0.2v0.2h0.2v0.2H41V94
		h0.2v0.2h0.2v0.2h0.2v0.2h0.2v0.2h0.2v0.2h0.2v0.2h0.2v0.2h0.2v0.2h0.2v0.2h0.2v0.2h0.2V96h0.2v0.2h0.2v0.2h0.2v0.2h0.2v0.2H44v0.2
		h0.2v0.2h0.2v0.2h0.2v0.2h0.2v0.2h0.2v0.2h0.2V98h0.2v0.2h0.2v0.2h0.2v0.2h0.2v0.2h0.2v0.2h0.2v0.2h0.2v0.2h0.2v0.2h0.2v0.2H47v0.2
		h0.2v0.2h0.2v0.2h0.2v0.2h0.2v0.2h0.2v0.2h0.2v0.2h0.2v0.2h0.2v0.2h0.2v0.2h0.2v0.2H49v0.2h0.4v0.2H50v0.2h20.1V102h0.6v-0.2H71
		v-0.2h0.2v-0.2h0.2v-0.2h0.2v-0.2h0.2v-0.2H72v-0.2h0.2v-0.2h0.2v-0.2h0.2v-0.2h0.2V100h0.2v-0.2h0.2v-0.2h0.2v-0.2h0.2v-0.2h0.2
		v-0.2h0.2v-0.2H74v-0.2h0.2v-0.2h0.2v-0.2h0.2v-0.2h0.2V98h0.2v-0.2h0.2v-0.2h0.2v-0.2h0.2v-0.2h0.2v-0.2h0.2v-0.2h0.2v-0.2h0.2
		v-0.2h0.2v-0.2h0.2v-0.2h0.2V96H77v-0.2h0.2v-0.2h0.2v-0.2h0.2v-0.2h0.2v-0.2h0.2v-0.2h0.2v-0.2h0.2v-0.2h0.2v-0.2h0.2v-0.2h0.2V94
		H79v-0.2h0.2v-0.2h0.2v-0.2h0.2v-0.2h0.2v-0.2H80v-0.2h0.2v-0.2h0.2v-0.2h0.2v-0.2h0.2v-0.2h0.2V92h0.2v-0.4h0.2v-0.2h0.2V74.5h0.2
		v-0.2h0.2v-0.2h0.4V74h0.4v-0.2H83v-0.2h0.4v-0.2h0.4v-0.2h0.2v-0.2h0.4v-0.2h0.2v-0.2h0.4v-0.2H85v-0.2h0.2v-0.2h0.4V72h0.2v-0.2
		h0.2v-0.2h0.2v-0.2h0.2v-0.2h0.2V71h0.2v-0.2h0.2v-0.2h0.2v-0.2h0.2v-0.2h0.2v-0.2h0.2v-0.2h0.2v-0.4H88v-0.2h0.2v-0.2h0.2v-0.4
		h0.2v-0.2h0.2v-0.4h0.2v-0.4h0.2v-0.4h0.2v-0.2h0.2v-0.6h0.2v-0.4h0.2v-0.4h0.2v-0.5h0.2V65h0.2v-0.7h0.2v-0.9h0.2v-0.9H91v-1.7
		h0.1V46.1h-0.2v-3.9h-0.2v-1.7h-0.2v-1.3h-0.2v-0.9h-0.2v-0.9H90v-0.7h-0.2v-0.6h-0.2v-0.7h-0.2v-0.4h-0.2v-0.5h-0.2v-0.4h-0.2
		v-0.5h-0.2v-0.4h-0.2v-0.4h-0.2v-0.4h-0.2v-0.2h-0.2v-0.4h-0.2v-0.4h-0.2v-0.2h-0.2V31h-0.2v-0.2H87v-0.2h-0.2v-0.2h-0.2v-0.4h-0.2
		v-0.2h-0.2v-0.2h-0.2v-0.2h-0.2v-0.2h-0.2v-0.2h-0.2V29h-0.2v-0.2h-0.2v-0.2H85v-0.2h-0.2v-0.2h-0.2v-0.2h-0.2v-0.2H84v-0.2h-0.2
		v-0.2h-0.2v-0.2h-0.4v-0.2h-0.2V27h-0.4v-0.2h-0.2v-0.2h-0.4v-0.2h-0.4v-0.2h-0.4v-0.2h-0.2v-0.2h-0.4v-0.2h-0.4v-0.2h-0.6v-0.2
		h-0.4v-0.2h-0.4V25h-0.6v-0.2h-0.4v-0.2h-0.6v-0.2h-0.6v-0.2h-0.7v-0.2h-0.6v-0.2h-0.7v-0.2h-0.7v-0.2h-0.9v-0.2h-0.7v-0.2h-1.1V23
		h-1.3v-0.2h-1.5v-0.2h-2v-0.2h-3v-0.2h-7.5L56.3,22.4L56.3,22.4z"/>
</g>
</svg>
