<svg version="1.1" xmlns="http://www.w3.org/2000/svg" x="0px" y="0px" viewBox="0 0 16 16" enable-background="new 0 0 16 16"><path fill-rule="evenodd" clip-rule="evenodd" d="M5.348,10.485h0.03v0.03h0.03v0.03h0.03v0.03h0.03v0.03h0.03v0.03h0.03v0.03h0.03v0.03h0.03v0.03h0.03v0.03h0.03v0.03h0.03v0.03h0.03v0.03h0.03v0.03h0.03v0.03h0.03v0.03h0.03v0.03h0.03v0.03h0.03v0.03h0.03v0.03h0.03v0.03h0.03v0.03h0.03v0.03h0.03v0.03h0.03v0.03h0.03v0.03h0.03v0.03h0.03v0.03h0.03v0.03h0.06v0.03h0.03v0.03h0.06v0.03h0.298v-0.03h0.06v-0.03h0.03v-0.03h0.03v-0.03h0.03v-0.03h0.03v-0.059h0.03V11.14h0.03v-0.149H6.9v-0.149h0.03v-0.149h0.03v-0.149h0.03v-0.149h0.03v-0.149h0.03v-0.149h0.03V9.95h0.03V9.89H8.9V9.95h0.03v0.149h0.03v0.149h0.03v0.149h0.03v0.149h0.03v0.149h0.03v0.149h0.03v0.149h0.03v0.149h0.03v0.059h0.03v0.059h0.03v0.03h0.03v0.03h0.03v0.03h0.03v0.03h0.06v0.03h0.298v-0.03h0.06v-0.03h0.03v-0.03h0.06v-0.03h0.03v-0.03h0.03v-0.03h0.03v-0.03h0.03v-0.03h0.03v-0.03h0.03v-0.03h0.03v-0.03h0.03v-0.03h0.03v-0.03h0.03v-0.03h0.03v-0.03h0.03v-0.03h0.03v-0.03h0.03v-0.03h0.03v-0.03h0.03v-0.03h0.03v-0.03h0.03v-0.03h0.03v-0.03h0.03v-0.03h0.03v-0.03h0.03v-0.03h0.03v-0.03h0.03v-0.03h0.03v-0.03h0.03v-0.03h0.03v-0.03h0.03v1.933h-0.03v0.03h-0.03v0.03h-0.03v0.03h-0.03v0.03h-0.03v0.03h-0.03v0.03h-0.03v0.03h-0.03v0.03h-0.03v0.03h-0.03v0.03h-0.03v0.03h-0.03v0.03h-0.03v0.03h-0.03v0.03h-0.03v0.03h-0.03v0.03h-0.03v0.03h-0.03v0.03h-0.03v0.03h-0.03v0.03h-0.03v0.03h-0.03v0.03h-0.03v0.03h-0.03v0.03h-0.03v0.03h-0.03v0.03h-0.03v0.03h-0.03v0.03h-0.03v0.03h-0.03v0.03h-0.03v0.03h-0.03v0.03h-0.03v0.03h-0.03v0.03h-0.03v0.03h-0.03v0.03h-0.03v0.03h-0.03v0.03h-0.03v0.03h-0.03v0.03h-0.03v0.03h-0.03v0.03h-0.03v0.03H6.631v-0.03h-0.03v-0.03h-0.03v-0.03h-0.03v-0.03h-0.03v-0.03h-0.03v-0.03h-0.03v-0.03h-0.03v-0.03h-0.03v-0.03h-0.03V13.4h-0.03v-0.03h-0.03v-0.03h-0.03v-0.03h-0.03v-0.03h-0.03v-0.03h-0.03v-0.03h-0.03v-0.03h-0.03v-0.03h-0.03v-0.03h-0.03v-0.03h-0.03v-0.03h-0.03v-0.03h-0.03v-0.03h-0.03v-0.03h-0.03v-0.03h-0.03v-0.03h-0.03v-0.03h-0.03v-0.03h-0.03v-0.03h-0.03v-0.03h-0.03v-0.03h-0.03v-0.03h-0.03v-0.03h-0.03v-0.03h-0.03v-0.03h-0.03v-0.03h-0.03v-0.03h-0.03v-0.03h-0.03v-0.03h-0.03v-0.03h-0.03v-0.03h-0.03v-0.03h-0.03v-0.03h-0.03V10.485L5.348,10.485z M6.691,9.147h-0.09v0.03h-0.03v0.03h-0.06v0.03h-0.03v0.03h-0.03v0.059h-0.03v0.059h-0.03v0.149h-0.03v0.149h-0.03v0.149h-0.03V9.98h-0.03v0.149h-0.03v0.119h-0.03v-0.03h-0.03v-0.03h-0.03v-0.03h-0.03v-0.03h-0.03v-0.03h-0.03v-0.03h-0.03v-0.03h-0.03v-0.03h-0.03V9.98h-0.03V9.95h-0.03V9.92h-0.03V9.89h-0.03v-0.03h-0.03v-0.03h-0.03v-0.03h-0.03v-0.03h-0.03v-0.03h-0.03v-0.03h-0.03v-0.03h-0.03v-0.03h-0.03v-0.03h-0.03v-0.03h-0.03v-0.03h-0.03v-0.03h-0.03v-0.03h-0.03v-0.03h-0.03v-0.03h-0.03v-0.03h-0.03v-0.03h-0.03V6.856h0.418v0.03h0.03v0.119h0.03v0.059h0.03v0.059h0.03v0.03h0.03v0.03h0.03v0.03h0.03v0.03h0.06v0.03h0.06v0.03h0.298v-0.03h0.06v-0.03h0.06v-0.03h0.03v-0.03h0.03v-0.03h0.03v-0.03h0.03v-0.03h0.03V7.035h0.03V6.916h0.03V6.856h0.448v2.261H6.691V9.147L6.691,9.147z M5.348,5.28h0.09v0.03h0.149v0.03h0.239V5.31h0.179V5.28h0.09V5.25h0.06v-0.03h0.09v-0.03h0.03v-0.03h0.06v-0.03h0.03v-0.03h0.06v-0.03h0.03v-0.03h0.06v0.03h0.03v0.03h0.03v0.03h0.06v0.03h0.03v0.03h0.06v0.03h0.06v0.03h0.09v0.03h0.09v0.03h0.179v0.03h0.209V5.31h0.179V5.28h0.09V5.25h0.09v-0.03h0.06v-0.03h0.06v-0.03h0.03v-0.03h0.06v-0.03h0.03v-0.03h0.03v-0.03h0.06v0.03h0.03v0.03h0.03v0.03h0.06v0.03h0.03v0.03h0.06v0.03h0.06v0.03h0.09v0.03h0.09v0.03h0.179v0.03H8.87V5.31h0.179V5.28h0.09V5.25h0.09v-0.03h0.06v-0.03h0.06v-0.03h0.03v-0.03h0.06v-0.03h0.03v-0.03h0.03v-0.03h0.06v0.03h0.03v0.03h0.03v0.03h0.06v0.03h0.06v0.03h0.03v0.03h0.09v0.03h0.06v0.03h0.09v0.03h0.179v0.03h0.239V5.31h0.149V5.28h0.09v0.803H8.78v0.03H8.72v0.03h-0.03v0.03h-0.03v0.03h-0.03v0.03h-0.03v0.03h-0.03v0.059h-0.03v0.297h0.03v0.059h0.03v0.03h0.03v0.03h0.03v0.03h0.03v0.03h0.06v0.03h0.09v0.03h0.448v0.089h0.03v0.089h0.03v0.059h0.03v0.03h0.03v0.03h0.03v0.03h0.03v0.03h0.03v0.03h0.06v0.03h0.06v0.03h0.298v-0.03h0.06v-0.03h0.06v-0.03h0.03v-0.03h0.03v-0.03h0.03v-0.03h0.03V7.065h0.03V7.005h0.03V6.886h0.03v-0.03h0.418v2.528h-0.03v0.03h-0.03v0.03h-0.03v0.03h-0.03v0.03h-0.03v0.03h-0.03v0.03h-0.03v0.03h-0.03v0.03h-0.03v0.03h-0.03v0.03h-0.03v0.03h-0.03v0.03h-0.03v0.03h-0.03v0.03h-0.03v0.03h-0.03v0.03h-0.03v0.03h-0.03v0.03h-0.03v0.03h-0.03v0.03h-0.03v0.03h-0.03v0.03h-0.03v0.03h-0.03v0.03h-0.03v0.03h-0.03v0.03h-0.03v0.03h-0.03v0.03h-0.03v0.03h-0.03v-0.119h-0.03V9.98h-0.03V9.831h-0.03V9.682h-0.03V9.533h-0.03V9.385h-0.03V9.325h-0.03V9.266h-0.03v-0.03h-0.03v-0.03h-0.06v-0.03h-0.03v-0.03h-0.09v-0.03H7.944V6.381h-0.03V6.291h-0.03v-0.03h-0.03V6.202h-0.03v-0.03h-0.03v-0.03h-0.06v-0.03h-0.06v-0.03H5.348V5.28L5.348,5.28z M4.84,3.823h-0.09v0.03h-0.03v0.03h-0.03v0.03h-0.03v0.03h-0.03v0.03h-0.03v0.059h-0.03v0.149h-0.03v4.878h-0.03v-0.03h-0.03v-0.03h-0.06v-0.03h-0.03v-0.03h-0.03v-0.03h-0.03v-0.03h-0.03v-0.03h-0.03V8.82h-0.03V8.79h-0.03V8.76h-0.03V8.73h-0.03V8.671h-0.03v-0.03h-0.03v-0.03h-0.03V8.552h-0.03V8.492h-0.03V8.433h-0.03V8.373h-0.03V8.284h-0.03V8.195h-0.03V8.076h-0.03V7.927h-0.03V7.689h-0.03V5.815h0.03V4.864h0.03V4.566h0.03V4.358h0.03V4.209h0.03V4.09h0.03V4.001h0.03V3.912h0.03V3.823h0.03V3.763h0.03V3.674h0.03V3.614h0.03v-0.03h0.03V3.525h0.03V3.466h0.03v-0.03h0.03V3.376h0.03v-0.03h0.03v-0.03h0.03V3.257h0.03v-0.03h0.03v-0.03h0.03v-0.03h0.03v-0.03h0.03v-0.03h0.03v-0.03h0.03v-0.03h0.06v-0.03h0.03V2.99h0.03V2.96h0.06V2.93h0.03V2.9h0.06v-0.03h0.03v-0.03h0.06v-0.03h0.06v-0.03h0.06v-0.03h0.06v-0.03h0.06v-0.03h0.06v-0.03h0.09v-0.03h0.06v-0.03h0.09v-0.03h0.09v-0.03h0.119v-0.03h0.119v-0.03h0.119v-0.03h0.149v-0.03h0.149v-0.03h0.209v-0.03h0.239v-0.03h0.328v-0.03h0.567v-0.03h0.895v0.03h0.567v0.03h0.328v0.03h0.239v0.03h0.209v0.03h0.149v0.03h0.149v0.03h0.119v0.03h0.119v0.03h0.119v0.03h0.09v0.03h0.09v0.03h0.06v0.03h0.09v0.03h0.06v0.03h0.06v0.03h0.06v0.03h0.06v0.03h0.06v0.03h0.06v0.03h0.03V2.9h0.06v0.03h0.03v0.03h0.06v0.03h0.03v0.03h0.03v0.03h0.06v0.03h0.03v0.03h0.03v0.03h0.03v0.03h0.03v0.03h0.03v0.03h0.03v0.059h0.03v0.03h0.03v0.03h0.03v0.03h0.03v0.059h0.03v0.03h0.03v0.059h0.03v0.059h0.03v0.059h0.03v0.059h0.03v0.059h0.03v0.059h0.03v0.089h0.03v0.089h0.03V4.12h0.03v0.119h0.03v0.149h0.03v0.178h0.03v0.297h0.03v1.309h0.03v1.517h-0.03v0.238h-0.03v0.149h-0.03v0.119h-0.03v0.089h-0.03v0.089h-0.03v0.059h-0.03v0.059h-0.03v0.059h-0.03v0.03h-0.03v0.059h-0.03v0.03h-0.03V8.73h-0.03v0.03h-0.03v0.03h-0.03v0.03h-0.03v0.03h-0.03v0.03h-0.03v0.03h-0.03v0.03h-0.03v0.03h-0.03v0.03h-0.06v0.03h-0.03v0.03h-0.06V4.031h-0.03V3.971h-0.03v-0.03h-0.03v-0.03h-0.03v-0.03h-0.03v-0.03h-0.03v-0.03h-0.09v-0.03h-0.239v0.03h-0.06v0.03h-0.03v0.03h-0.06v0.03h-0.03v0.059h-0.03v0.059h-0.03V4.12h-0.03v0.178h-0.03v0.059h-0.03v0.059h-0.03v0.03h-0.03v0.03h-0.03v0.03h-0.06v0.03h-0.298v-0.03h-0.06v-0.03h-0.03v-0.03h-0.03v-0.03h-0.03v-0.03h-0.03V4.328h-0.03V4.239h-0.03V4.06h-0.03V3.971h-0.03v-0.03h-0.03v-0.03h-0.03v-0.03h-0.03v-0.03h-0.06v-0.03h-0.06v-0.03H9.407v0.03h-0.06v0.03h-0.06v0.03h-0.03v0.03h-0.03v0.03h-0.03v0.059h-0.03V4.09h-0.03v0.208h-0.03v0.059h-0.03v0.059h-0.03v0.03h-0.03v0.03h-0.06v0.03H8.9v0.03H8.631v-0.03h-0.06v-0.03h-0.06v-0.03h-0.03V4.388h-0.03v-0.03h-0.03V4.269h-0.03V4.06h-0.03V4.001h-0.03V3.942h-0.03v-0.03h-0.03v-0.03h-0.03v-0.03h-0.06v-0.03h-0.06v-0.03H7.885v0.03h-0.06v0.03h-0.06v0.03h-0.03v0.03h-0.03v0.03h-0.03v0.059h-0.03V4.06h-0.03v0.208h-0.03v0.089h-0.03v0.03h-0.03v0.059h-0.03v0.03h-0.06v0.03h-0.06v0.03H7.079v-0.03h-0.03v-0.03h-0.06v-0.03h-0.03v-0.03H6.93V4.358H6.9V4.298H6.87V4.09H6.84V4.001H6.81v-0.03H6.78V3.912h-0.03v-0.03h-0.03v-0.03h-0.06v-0.03h-0.06v-0.03H6.363v0.03h-0.06v0.03h-0.06v0.03h-0.03v0.03h-0.03v0.03h-0.03v0.03h-0.03v0.059h-0.03v0.208h-0.03v0.089h-0.03v0.059h-0.03v0.03h-0.03v0.03h-0.03v0.03h-0.03v0.03h-0.06v0.03H5.557v-0.03h-0.06v-0.03h-0.03v-0.03h-0.03v-0.03h-0.03V4.358h-0.03V4.298h-0.03V4.12h-0.03V4.031h-0.03V3.971h-0.03V3.912h-0.03v-0.03h-0.06v-0.03h-0.03v-0.03h-0.09v-0.03H4.84V3.823L4.84,3.823z M7.407,1.532H6.93v0.03H6.601v0.03H6.363v0.03H6.154v0.03H5.975v0.03H5.855v0.03H5.706v0.03H5.587v0.03H5.467V1.8h-0.09v0.03H5.258v0.03h-0.09v0.03h-0.09v0.03h-0.06v0.03H4.93v0.03H4.87v0.03H4.81v0.03h-0.09v0.03h-0.06v0.03h-0.06v0.03h-0.03v0.03h-0.06v0.03h-0.06v0.03h-0.06v0.03h-0.03v0.03h-0.06v0.03h-0.03v0.03h-0.06v0.03h-0.03v0.03h-0.03v0.03h-0.06v0.03h-0.03v0.03h-0.03v0.03h-0.03v0.03h-0.03v0.03h-0.03v0.03h-0.03v0.03h-0.03v0.03h-0.03v0.03h-0.03v0.03h-0.03v0.03h-0.03v0.03h-0.03v0.03h-0.03v0.059h-0.03V2.9h-0.03v0.03h-0.03V2.99h-0.03v0.03h-0.03v0.059h-0.03v0.059h-0.03v0.03h-0.03v0.059h-0.03v0.059h-0.03v0.059h-0.03v0.059h-0.03v0.089h-0.03v0.089h-0.03v0.059h-0.03v0.089h-0.03v0.119h-0.03v0.119h-0.03V4.09h-0.03v0.178h-0.03v0.208h-0.03v0.268H3.05v0.595H3.02v2.439h0.03v0.238h0.03v0.178h0.03v0.119h0.03v0.119h0.03v0.089h0.03v0.089h0.03v0.059h0.03V8.73h0.03V8.82h0.03v0.059h0.03v0.03h0.03v0.059h0.03v0.059h0.03v0.03h0.03v0.059h0.03v0.03h0.03v0.03h0.03v0.059h0.03v0.03h0.03v0.03h0.03v0.03h0.03v0.03h0.03v0.03h0.03v0.03h0.03v0.03h0.03v0.03h0.03v0.03h0.03v0.03h0.03v0.03h0.03v0.03h0.06v0.03h0.03v0.03h0.03v0.03h0.06v0.03h0.03v0.03h0.06v0.03h0.03v0.03h0.06v0.03h0.06v0.03h0.06v0.03h0.06v0.03h0.06v0.03h0.03v2.618h0.03v0.149h0.03v0.059h0.03v0.03h0.03v0.03h0.03v0.03h0.03v0.03h0.03v0.03h0.03v0.03h0.03v0.03h0.03v0.03h0.03v0.03H4.9v0.03h0.03v0.03h0.03v0.03h0.03v0.03h0.03v0.03h0.03v0.03h0.03v0.03h0.03v0.03h0.03v0.03h0.03v0.03h0.03v0.03h0.03v0.03h0.03v0.03h0.03v0.03h0.03v0.03h0.03v0.03h0.03v0.03h0.03v0.03h0.03v0.03h0.03v0.03h0.03v0.03h0.03v0.03h0.03v0.03h0.03v0.03h0.03v0.03h0.03v0.03h0.03v0.03h0.03v0.03h0.03v0.03h0.03v0.03h0.03v0.03h0.03v0.03h0.03v0.03h0.03v0.03h0.03v0.03h0.03v0.03h0.03v0.03h0.03v0.03h0.03v0.03h0.03v0.03h0.03v0.03h0.03v0.03h0.03v0.03h0.03v0.03h0.03v0.03h0.03v0.03h0.06v0.03h0.09v0.03h3.223v-0.03h0.09v-0.03h0.06v-0.03h0.03v-0.03h0.03v-0.03h0.03v-0.03h0.03v-0.03h0.03v-0.03h0.03v-0.03h0.03v-0.03h0.03v-0.03h0.03v-0.03h0.03v-0.03h0.03v-0.03h0.03v-0.03h0.03v-0.03h0.03v-0.03h0.03v-0.03h0.03v-0.03h0.03v-0.03h0.03v-0.03h0.03v-0.03h0.03v-0.03h0.03v-0.03h0.03v-0.03h0.03v-0.03h0.03v-0.03h0.03v-0.03h0.03v-0.03h0.03v-0.03h0.03v-0.03h0.03v-0.03h0.03v-0.03h0.03v-0.03h0.03v-0.03h0.03V13.4h0.03v-0.03h0.03v-0.03h0.03v-0.03h0.03v-0.03h0.03v-0.03h0.03v-0.03h0.03v-0.03h0.03v-0.03h0.03v-0.03h0.03v-0.03h0.03v-0.03h0.03v-0.03h0.03v-0.03h0.03v-0.03h0.03v-0.03h0.03v-0.03h0.03v-0.03h0.03v-0.03h0.03v-0.03h0.03v-0.03h0.03v-0.059h0.03v-0.03h0.03V9.98h0.03V9.95h0.03V9.92h0.06V9.89h0.06v-0.03h0.06v-0.03h0.06v-0.03h0.06v-0.03h0.03v-0.03h0.06v-0.03h0.03v-0.03h0.06v-0.03h0.03v-0.03h0.03v-0.03h0.06v-0.03h0.03v-0.03h0.03v-0.03h0.03v-0.03h0.03v-0.03h0.03v-0.03h0.03v-0.03h0.03v-0.03h0.03v-0.03h0.03v-0.03h0.03v-0.03h0.03v-0.03h0.03V9.177h0.03v-0.03h0.03v-0.03h0.03V9.058h0.03v-0.03h0.03V8.968h0.03V8.909h0.03V8.849h0.03V8.82h0.03V8.73h0.03V8.671h0.03V8.611h0.03V8.522h0.03V8.433h0.03V8.314h0.03V8.165h0.03V8.017h0.03V7.749h0.03v-2.38h-0.03V4.745h-0.03V4.477h-0.03V4.269h-0.03V4.12h-0.03V3.971h-0.03V3.852h-0.03V3.763h-0.03V3.644h-0.03V3.585h-0.03V3.495h-0.03V3.436h-0.03V3.347h-0.03V3.287h-0.03V3.228h-0.03V3.168h-0.03v-0.03h-0.03V3.079h-0.03V3.019h-0.03V2.99h-0.03V2.93h-0.03V2.9h-0.03v-0.03h-0.03v-0.03h-0.03V2.781h-0.03v-0.03h-0.03v-0.03h-0.03v-0.03h-0.03v-0.03h-0.03v-0.03h-0.03v-0.03h-0.03v-0.03h-0.03v-0.03h-0.03v-0.03h-0.03v-0.03h-0.03v-0.03h-0.03v-0.03h-0.06v-0.03h-0.03v-0.03h-0.03v-0.03h-0.06v-0.03h-0.03v-0.03h-0.06v-0.03h-0.03v-0.03h-0.06v-0.03h-0.06v-0.03h-0.06v-0.03h-0.03v-0.03h-0.06v-0.03h-0.06v-0.03h-0.09v-0.03h-0.06v-0.03h-0.06v-0.03h-0.09v-0.03h-0.06v-0.03h-0.09v-0.03h-0.09V1.83h-0.119V1.8h-0.09V1.77h-0.119V1.74h-0.119v-0.03h-0.149v-0.03h-0.119v-0.03H9.855v-0.03H9.646v-0.03H9.407v-0.03H9.079v-0.03H8.601v-0.03H7.407V1.532L7.407,1.532z"></path></svg>