<?xml version="1.0" encoding="utf-8"?>
<!-- Generator: Adobe Illustrator 19.0.0, SVG Export Plug-In . SVG Version: 6.00 Build 0)  -->
<svg version="1.1" id="Layer_1" xmlns="http://www.w3.org/2000/svg" xmlns:xlink="http://www.w3.org/1999/xlink" x="0px" y="0px"
	 viewBox="0 0 640 360" enable-background="new 0 0 640 360" xml:space="preserve">
<rect id="XMLID_1_" fill="#008272" width="640" height="360"/>
<g>
	<path fill="#FFFFFF" d="M320,162.591c17.255,0,31.292-14.039,31.292-31.295S337.255,100,320,100s-31.292,14.039-31.292,31.296S302.745,162.591,320,162.591z M304.863,127.952c1.847-1.846,4.84-1.846,6.688,0l4.518,4.519l12.38-12.382c1.847-1.846,4.84-1.846,6.688,0c1.847,1.847,1.847,4.841,0,6.688l-15.724,15.726c-0.923,0.923-2.133,1.385-3.344,1.385c-1.211,0-2.42-0.462-3.344-1.385l-7.862-7.863C303.016,132.793,303.016,129.798,304.863,127.952z"/>
	<path id="XMLID_6_" fill="#FFFFFF" d="M258.405,145.718c10.149,0,18.406-8.258,18.406-18.408s-8.257-18.408-18.406-18.408c-10.149,0-18.405,8.258-18.405,18.408C240,137.46,248.256,145.718,258.405,145.718z"/>
	<path id="XMLID_5_" fill="#FFFFFF" d="M241.814,172.068v38.229c0,8.78,7.117,15.898,15.897,15.898h20.718v28.235c0,2.151,1.743,3.895,3.894,3.895h18.358c2.151,0,3.894-1.743,3.894-3.895v-40.729c0-7.412-6.008-13.42-13.418-13.42h-16.159v-28.214c0-9.164-7.428-16.593-16.592-16.593C249.242,155.474,241.814,162.903,241.814,172.068z"/>
	<path id="XMLID_4_" fill="#FFFFFF" d="M381.595,145.718c10.149,0,18.405-8.258,18.405-18.408s-8.256-18.408-18.405-18.408s-18.406,8.258-18.406,18.408S371.446,145.718,381.595,145.718z"/>
	<path id="XMLID_3_" fill="#FFFFFF" d="M365.003,172.068v28.214h-16.158c-7.411,0-13.419,6.008-13.419,13.42v40.729c0,2.151,1.743,3.895,3.894,3.895h18.358c2.151,0,3.894-1.743,3.894-3.895v-28.235h20.718c8.78,0,15.897-7.118,15.897-15.898v-38.229c0-9.164-7.428-16.593-16.592-16.593C372.431,155.474,365.003,162.903,365.003,172.068L365.003,172.068z"/>
	<path id="XMLID_2_" fill="#FFFFFF" d="M347.537,181.785c2.612,0,4.728-2.117,4.728-4.729c0-2.612-2.117-4.729-4.728-4.729h-55.074c-2.612,0-4.728,2.117-4.728,4.729c0,2.612,2.117,4.729,4.728,4.729h22.808v73.486c0,2.612,2.117,4.729,4.728,4.729s4.728-2.117,4.728-4.729v-73.486H347.537z"/>
</g>
</svg>
