<svg version="1.1" xmlns="http://www.w3.org/2000/svg" xmlns:xlink="http://www.w3.org/1999/xlink" x="0px" y="0px" viewBox="0 0 640 360" enable-background="new 0 0 640 360" xml:space="preserve"><rect id="XMLID_1_" fill="#292929" width="640" height="360"/><g><path fill="#FF0000" d="M248.496,151.318c-1.397-5.227-5.514-9.343-10.741-10.74c-9.474-2.539-47.463-2.539-47.463-2.539s-37.989,0-47.463,2.539c-5.227,1.397-9.343,5.514-10.741,10.74c-2.539,9.474-2.539,29.241-2.539,29.241s0,19.767,2.539,29.241c1.397,5.227,5.514,9.343,10.741,10.74c9.474,2.539,47.463,2.539,47.463,2.539s37.989,0,47.463-2.539c5.227-1.397,9.343-5.514,10.741-10.74c2.539-9.474,2.539-29.241,2.539-29.241S251.034,160.792,248.496,151.318z"/><polygon fill="#FFFFFF" points="178.144,198.782 209.705,180.56 178.144,162.336 "/></g><g><g><path fill="#FFFFFF" d="M305.885,215.403c-2.404-1.62-4.113-4.14-5.126-7.558c-1.014-3.417-1.52-7.963-1.52-13.64v-7.732c0-5.734,0.578-10.339,1.737-13.814c1.158-3.475,2.968-6.008,5.43-7.602c2.461-1.592,5.691-2.389,9.687-2.389c3.938,0,7.094,0.811,9.47,2.432c2.374,1.622,4.112,4.156,5.213,7.602c1.1,3.447,1.651,8.036,1.651,13.77v7.732c0,5.677-0.536,10.238-1.607,13.683c-1.072,3.447-2.81,5.966-5.213,7.558c-2.404,1.592-5.662,2.389-9.774,2.389C311.604,217.836,308.288,217.024,305.885,215.403z M319.351,207.063c0.665-1.737,0.999-4.574,0.999-8.514v-16.594c0-3.823-0.334-6.616-0.999-8.384c-0.666-1.766-1.84-2.65-3.519-2.65c-1.622,0-2.766,0.884-3.431,2.65c-0.666,1.767-0.999,4.561-0.999,8.384v16.594c0,3.939,0.317,6.776,0.956,8.514c0.637,1.738,1.794,2.606,3.475,2.606C317.511,209.669,318.685,208.801,319.351,207.063z"/><path fill="#FFFFFF" d="M490.406,194.332v2.693c0,3.418,0.1,5.981,0.304,7.689c0.202,1.709,0.621,2.954,1.26,3.736c0.637,0.782,1.62,1.173,2.954,1.173c1.794,0,3.026-0.695,3.692-2.085c0.665-1.39,1.028-3.706,1.086-6.95l10.339,0.608c0.058,0.464,0.087,1.101,0.087,1.911c0,4.924-1.347,8.601-4.04,11.033s-6.502,3.649-11.425,3.649c-5.907,0-10.049-1.853-12.424-5.56c-2.375-3.706-3.562-9.439-3.562-17.201v-9.296c0-7.992,1.231-13.827,3.693-17.506c2.461-3.677,6.675-5.517,12.641-5.517c4.112,0,7.268,0.754,9.469,2.259c2.201,1.507,3.75,3.852,4.648,7.037c0.898,3.186,1.347,7.589,1.347,13.206v9.122L490.406,194.332L490.406,194.332z M491.926,171.918c-0.608,0.753-1.014,1.984-1.216,3.692c-0.204,1.709-0.304,4.3-0.304,7.776v3.823h8.774v-3.823c0-3.417-0.116-6.008-0.347-7.776c-0.232-1.766-0.651-3.011-1.26-3.735c-0.608-0.724-1.55-1.086-2.824-1.086C493.475,170.788,492.534,171.166,491.926,171.918z"/><path fill="#FFFFFF" d="M276.691,193.335l-13.64-49.259h11.902l4.778,22.328c1.217,5.503,2.114,10.194,2.693,14.074h0.348c0.405-2.78,1.303-7.441,2.693-13.987l4.952-22.415h11.903l-13.814,49.259v23.632h-11.815V193.335z"/><path fill="#FFFFFF" d="M371.136,163.711v53.255h-9.383l-1.043-6.516h-0.26c-2.55,4.924-6.372,7.384-11.468,7.384c-3.533,0-6.14-1.158-7.819-3.475c-1.681-2.316-2.519-5.936-2.519-10.86V163.71h11.989v39.095c0,2.375,0.261,4.07,0.782,5.082c0.521,1.014,1.39,1.52,2.606,1.52c1.043,0,2.042-0.318,2.997-0.956c0.956-0.637,1.664-1.447,2.129-2.432V163.71h11.989V163.711z"/><path fill="#FFFFFF" d="M432.632,163.711v53.255h-9.383l-1.043-6.516h-0.26c-2.55,4.924-6.372,7.384-11.468,7.384c-3.533,0-6.14-1.158-7.819-3.475c-1.681-2.316-2.519-5.936-2.519-10.86V163.71h11.989v39.095c0,2.375,0.261,4.07,0.782,5.082c0.521,1.014,1.39,1.52,2.606,1.52c1.043,0,2.042-0.318,2.997-0.956c0.956-0.637,1.664-1.447,2.129-2.432V163.71h11.989V163.711z"/><path fill="#FFFFFF" d="M403.714,153.72h-11.902v63.246h-11.728V153.72h-11.902v-9.643h35.532V153.72z"/><path fill="#FFFFFF" d="M472.311,172.224c-0.725-3.358-1.898-5.791-3.519-7.297c-1.622-1.505-3.852-2.259-6.689-2.259c-2.202,0-4.257,0.623-6.168,1.868c-1.911,1.246-3.388,2.882-4.431,4.909h-0.088l0.001-28.062h-11.554v75.583h9.904l1.216-5.039h0.261c0.926,1.796,2.316,3.214,4.17,4.257c1.853,1.042,3.909,1.563,6.169,1.563c4.053,0,7.037-1.868,8.948-5.603c1.911-3.736,2.867-9.57,2.867-17.506v-8.427C473.397,180.247,473.034,175.584,472.311,172.224z M461.321,193.947c0,3.881-0.16,6.922-0.478,9.122c-0.319,2.202-0.855,3.766-1.607,4.692c-0.753,0.927-1.767,1.39-3.04,1.39c-0.986,0-1.898-0.231-2.737-0.695c-0.84-0.463-1.52-1.158-2.042-2.085v-30.233c0.405-1.447,1.099-2.635,2.085-3.562c0.984-0.926,2.055-1.39,3.214-1.39c1.216,0,2.157,0.478,2.823,1.433c0.665,0.955,1.129,2.563,1.39,4.822c0.261,2.259,0.391,5.473,0.391,9.643v6.863H461.321z"/></g></g></svg>