<?xml version="1.0" encoding="utf-8"?>
<!-- Generator: Adobe Illustrator 19.0.0, SVG Export Plug-In . SVG Version: 6.00 Build 0)  -->
<svg version="1.1" id="Layer_1" xmlns="http://www.w3.org/2000/svg" xmlns:xlink="http://www.w3.org/1999/xlink" x="0px" y="0px"
	 viewBox="0 0 640 360" enable-background="new 0 0 640 360" xml:space="preserve">
<rect id="XMLID_1_" fill="#49409A" width="640" height="360"/>
<g id="XMLID_2_">
	<g id="Layer_3">
		<g>
			<path id="XMLID_8_" fill="#FFFFFF" d="M347.857,229.477L347.857,229.477l-0.713-0.445l-0.267-0.089l-0.178-0.178
				c-2.585-1.691-3.476-4.894-2.139-7.564l1.872-3.737l-1.872-3.737c-1.515-3.026-0.446-6.229,2.585-7.742l4.011-1.869l0.713-4.182
				v-0.089v-0.089c0.178-0.623,0.446-1.246,0.713-1.78c-4.189-1.157-8.557-1.958-12.746-2.581
				c-1.872,12.369-28.612,11.479-28.612,11.479s-26.74,0.801-28.612-11.479c-19.787,3.026-42.605,10.59-42.605,29.9
				c0,0-2.139,15.929,71.217,15.929c12.568,0,22.818-0.445,31.375-1.246L347.857,229.477z"/>
			<path fill="#FFFFFF" d="M311.848,198.598c22.016,0,39.932-22.158,39.932-49.299c0-27.23-17.916-49.299-39.932-49.299
				c-22.016,0-39.932,22.158-39.932,49.299S289.832,198.598,311.848,198.598z M294.734,137.998c9.537,0,8.913,14.505,33.514,13.971
				c9.715-0.178,14.44-0.356,16.668-0.356c-0.98,22.425-15.42,40.311-33.157,40.311c-17.024,0-31.107-16.552-32.979-37.82
				l7.576,0.712C286.356,154.727,285.286,137.998,294.734,137.998z"/>
			<g>
				<path id="XMLID_5_" fill="#FFFFFF" d="M362.921,239.088l-2.496,0.356l-1.783,0.267c-0.357,0.089-0.802,0.089-1.159,0.089
					c-1.337,0-2.674-0.534-3.654-1.424c-0.446-0.356-0.891-0.89-1.248-1.424c-0.267-0.356-0.357-0.712-0.535-1.157
					c-0.089-0.178-0.178-0.356-0.267-0.623l0,0c0,0,0-0.089-0.089-0.089l-0.267-1.691l-0.446-2.581h-0.178l-4.278,8.454
					l-5.972,11.835l11.855-1.602L358.286,260l8.557-17.264c-0.357-0.356-0.357-0.356-0.624-0.623L362.921,239.088z"/>
				<path id="XMLID_4_" fill="#FFFFFF" d="M390.017,231.969l-0.535,3.115v0.089v0.089c-0.624,2.67-3.031,4.538-5.704,4.538
					c-0.357,0-0.624-0.089-0.98-0.089c-0.267,0-0.535,0-0.535,0l-4.278-0.623l-3.209,2.937c-0.267,0.267-0.624,0.534-0.98,0.801
					L382.263,260l5.883-10.145L400,251.457L390.017,231.969z"/>
				<path id="XMLID_3_" fill="#FFFFFF" d="M377.093,235.528l5.972,0.979l0.267,0.089c0.178,0,0.357,0.089,0.535,0.089
					c1.159,0,2.139-0.89,2.407-2.047l0.98-5.873l1.248-0.623l1.159-0.534l1.515-0.712l1.694-0.801
					c1.337-0.623,1.604-1.958,0.98-3.293l-3.654-5.25l2.585-5.25c0.624-1.335,0.357-2.581-0.98-3.293l-5.615-2.581l-0.98-5.873
					c-0.267-1.157-1.337-2.047-2.407-2.047c-0.178,0-0.357,0-0.535,0.089l-6.239,0.979l-4.635-4.271
					c-0.535-0.534-1.159-0.712-1.783-0.712s-1.337,0.267-1.783,0.712l-4.635,4.271l-5.259-0.979c-0.178,0-0.446-0.089-0.624-0.089
					c-0.535,0-0.98,0.178-1.337,0.445c-0.535,0.356-0.891,0.89-1.07,1.602l-0.98,5.873l-5.615,2.581
					c-1.337,0.623-1.604,1.958-0.98,3.293l2.585,5.25l-2.585,5.25c-0.624,1.335,0,2.581,0.98,3.293l3.387,1.602l2.139,1.068
					l0.713,4.36l0.267,1.513c0.089,0.178,0.178,0.356,0.267,0.534c0.446,0.89,1.248,1.513,2.228,1.513c0.178,0,0.357,0,0.535-0.089
					l1.961-0.267l4.278-0.712l0.802,0.712l3.833,3.56c0.535,0.534,1.159,0.712,1.783,0.712c0.267,0,0.535-0.089,0.802-0.178
					c0.357-0.089,0.713-0.267,0.98-0.623l4.457-4.093L377.093,235.528z"/>
			</g>
		</g>
	</g>
	<g id="Credits">
	</g>
</g>
</svg>
