<?xml version="1.0" encoding="utf-8"?>
<!-- Generator: Adobe Illustrator 19.0.0, SVG Export Plug-In . SVG Version: 6.00 Build 0)  -->
<svg version="1.1" id="Layer_1" xmlns="http://www.w3.org/2000/svg" xmlns:xlink="http://www.w3.org/1999/xlink" x="0px" y="0px"
	 viewBox="0 0 640 360" enable-background="new 0 0 640 360" xml:space="preserve">
<rect id="XMLID_1_" fill="#D25235" width="640" height="360"/>
<g id="XMLID_24_">
	<path id="XMLID_25_" fill="#FFFFFF" d="M156.194,250.79v-35.01h5.908v29.883h10.522V215.78h5.884v29.883h10.522V215.78h5.908v35.01H156.194z"/>
	<path id="XMLID_27_" fill="#FFFFFF" d="M218.206,250.79l-9.814-12.012h-0.098v12.012h-5.64v-25h5.64v11.401h0.098l9.302-11.401h7.153l-10.693,11.938l11.499,13.062H218.206z"/>
	<path id="XMLID_29_" fill="#FFFFFF" d="M251.58,238.046c0,4.053-1.172,7.292-3.516,9.717c-2.344,2.426-5.526,3.638-9.546,3.638c-3.857,0-6.93-1.151-9.216-3.454c-2.287-2.304-3.43-5.424-3.43-9.363c0-4.15,1.172-7.422,3.516-9.814s5.591-3.589,9.741-3.589c3.906,0,6.958,1.144,9.155,3.431C250.481,230.896,251.58,234.042,251.58,238.046z M245.721,238.241c0-2.767-0.615-4.866-1.843-6.299c-1.229-1.432-2.917-2.148-5.066-2.148c-2.214,0-3.947,0.749-5.2,2.246c-1.253,1.498-1.88,3.613-1.88,6.348c0,2.653,0.626,4.716,1.88,6.189c1.253,1.473,3.003,2.209,5.249,2.209c2.262,0,3.971-0.724,5.127-2.173C245.143,243.165,245.721,241.041,245.721,238.241z"/>
	<path id="XMLID_32_" fill="#FFFFFF" d="M272.21,250.79v-20.459h-5.713c-0.537,5.437-1.217,9.604-2.039,12.5c-0.822,2.897-1.896,4.997-3.223,6.299c-1.327,1.303-3.072,1.953-5.237,1.953c-1.172,0-2.019-0.098-2.539-0.293v-4.102c0.391,0.131,0.871,0.195,1.44,0.195c1.237,0,2.274-0.691,3.113-2.075c0.838-1.383,1.558-3.548,2.161-6.494c0.602-2.945,1.164-7.12,1.685-12.524h15.991v25H272.21z"/>
	<path id="XMLID_34_" fill="#FFFFFF" d="M298.553,250.79v-3.442h-0.098c-1.742,2.702-4.208,4.053-7.397,4.053c-2.458,0-4.395-0.667-5.811-2.002c-1.416-1.334-2.124-3.141-2.124-5.42c0-2.344,0.691-4.224,2.075-5.64c1.383-1.416,3.418-2.295,6.104-2.637l7.3-1.001c0-3.401-1.579-5.103-4.736-5.103c-1.53,0-3.015,0.253-4.456,0.757c-1.44,0.505-2.722,1.181-3.845,2.026v-4.98c0.895-0.569,2.242-1.082,4.041-1.538c1.798-0.455,3.414-0.684,4.846-0.684c3.206,0,5.619,0.834,7.239,2.503c1.619,1.668,2.43,4.089,2.43,7.263v15.845H298.553z M288.665,243.393c0,1.074,0.391,1.933,1.172,2.575c0.781,0.644,1.774,0.965,2.979,0.965c1.676,0,3.06-0.574,4.15-1.721c1.09-1.148,1.636-2.592,1.636-4.334v-2.246l-5.396,0.708c-1.709,0.244-2.893,0.668-3.552,1.27C288.995,241.212,288.665,242.14,288.665,243.393z"/>
	<path id="XMLID_37_" fill="#FFFFFF" d="M339.397,238.339c0,2.441-0.529,4.676-1.587,6.701c-1.059,2.027-2.531,3.594-4.419,4.7c-1.889,1.106-4.037,1.66-6.445,1.66c-3.027,0-5.363-0.448-7.006-1.343v-4.98c0.569,0.456,1.452,0.854,2.649,1.196c1.195,0.342,2.363,0.513,3.503,0.513c2.132,0,3.805-0.509,5.017-1.525c1.213-1.018,1.99-2.633,2.332-4.847h-10.498v-4.248h10.596c-0.651-4.231-3.207-6.348-7.666-6.348c-1.01,0-2.035,0.15-3.076,0.452c-1.042,0.301-1.913,0.655-2.612,1.062v-4.858c0.699-0.357,1.672-0.663,2.917-0.916c1.246-0.252,2.519-0.378,3.821-0.378c3.938,0,7.003,1.164,9.192,3.491C338.303,230.999,339.397,234.222,339.397,238.339z"/>
	<path id="XMLID_39_" fill="#FFFFFF" d="M353.143,230.331v20.459h-5.64v-20.459h-6.885v-4.541h19.409v4.541H353.143z"/>
	<path id="XMLID_41_" fill="#FFFFFF" d="M382.049,250.79v-17.529l-12.939,17.529h-4.81v-25h5.347v17.041l12.549-17.041h5.151v25H382.049z"/>
	<path id="XMLID_43_" fill="#FFFFFF" d="M410.369,250.79l-9.814-12.012h-0.098v12.012h-5.64v-25h5.64v11.401h0.098l9.302-11.401h7.153l-10.693,11.938l11.499,13.062H410.369z"/>
	<path id="XMLID_45_" fill="#FFFFFF" d="M423.821,239.95c0.113,2.279,0.806,4.013,2.075,5.2c1.27,1.188,3.084,1.782,5.444,1.782c1.416,0,2.774-0.224,4.077-0.672c1.302-0.447,2.441-1.021,3.418-1.721v4.761c-0.944,0.619-2.214,1.123-3.809,1.514c-1.596,0.391-3.28,0.586-5.054,0.586c-3.793,0-6.73-1.136-8.813-3.405c-2.084-2.271-3.125-5.424-3.125-9.461c0-2.669,0.517-5.005,1.55-7.007c1.034-2.002,2.467-3.561,4.297-4.675c1.832-1.115,3.846-1.673,6.043-1.673c3.45,0,6.132,1.059,8.045,3.174c1.912,2.116,2.868,5.046,2.868,8.789v2.808H423.821z M435.223,235.702c0-1.985-0.464-3.499-1.392-4.541c-0.928-1.041-2.23-1.563-3.906-1.563c-1.53,0-2.856,0.565-3.979,1.697c-1.123,1.131-1.831,2.6-2.124,4.406H435.223z"/>
	<path id="XMLID_48_" fill="#FFFFFF" d="M455.315,230.331v20.459h-5.64v-20.459h-6.885v-4.541H462.2v4.541H455.315z"/>
	<path id="XMLID_50_" fill="#FFFFFF" d="M479.705,250.79v-3.442h-0.098c-1.742,2.702-4.208,4.053-7.397,4.053c-2.458,0-4.395-0.667-5.811-2.002c-1.416-1.334-2.124-3.141-2.124-5.42c0-2.344,0.691-4.224,2.075-5.64c1.383-1.416,3.418-2.295,6.104-2.637l7.3-1.001c0-3.401-1.579-5.103-4.736-5.103c-1.53,0-3.015,0.253-4.456,0.757c-1.439,0.505-2.722,1.181-3.845,2.026v-4.98c0.895-0.569,2.242-1.082,4.04-1.538c1.799-0.455,3.414-0.684,4.847-0.684c3.206,0,5.619,0.834,7.239,2.503c1.619,1.668,2.429,4.089,2.429,7.263v15.845H479.705z M469.817,243.393c0,1.074,0.391,1.933,1.172,2.575c0.781,0.644,1.773,0.965,2.979,0.965c1.676,0,3.06-0.574,4.15-1.721c1.09-1.148,1.636-2.592,1.636-4.334v-2.246l-5.396,0.708c-1.709,0.244-2.893,0.668-3.553,1.27C470.147,241.212,469.817,242.14,469.817,243.393z"/>
	<path id="XMLID_53_" fill="#FFFFFF" d="M165.695,283.49v-9.554l-7.052,9.554h-2.622v-13.625h2.914v9.287l6.839-9.287h2.807v13.625H165.695z"/>
	<path id="XMLID_55_" fill="#FFFFFF" d="M190.577,279.459c0,1.25-0.404,2.235-1.211,2.953c-0.808,0.719-1.921,1.078-3.34,1.078h-7.119v-13.625h6.706c1.464,0,2.575,0.277,3.333,0.832c0.759,0.554,1.138,1.377,1.138,2.468c0,0.798-0.25,1.479-0.751,2.042c-0.501,0.563-1.143,0.925-1.923,1.085c0.976,0.115,1.748,0.459,2.315,1.031C190.292,277.896,190.577,278.607,190.577,279.459z M186.891,273.604c0-0.532-0.168-0.927-0.505-1.185c-0.337-0.257-0.923-0.386-1.756-0.386h-2.648v3.419h2.488c0.771,0,1.368-0.152,1.79-0.459C186.68,274.688,186.891,274.226,186.891,273.604z M187.356,279.459c0-1.26-0.874-1.89-2.621-1.89h-2.754v3.699h2.954c0.807,0,1.412-0.143,1.816-0.426C187.155,280.559,187.356,280.098,187.356,279.459z"/>
	<path id="XMLID_59_" fill="#FFFFFF" d="M203.629,282.918c-1.047,0.604-2.337,0.905-3.872,0.905c-1.313,0-2.481-0.284-3.506-0.852c-1.024-0.568-1.823-1.375-2.395-2.422s-0.858-2.218-0.858-3.513c0-1.481,0.295-2.79,0.885-3.926c0.59-1.135,1.446-2.016,2.568-2.641c1.122-0.625,2.423-0.938,3.905-0.938c0.576,0,1.175,0.064,1.796,0.193s1.113,0.295,1.477,0.499v2.914c-1.002-0.728-2.049-1.092-3.14-1.092c-1.277,0-2.313,0.429-3.107,1.284c-0.794,0.856-1.191,1.998-1.191,3.427c0,1.419,0.381,2.532,1.145,3.34c0.763,0.807,1.796,1.211,3.1,1.211c0.47,0,0.998-0.103,1.583-0.307s1.122-0.483,1.61-0.838V282.918z"/>
	<path id="XMLID_61_" fill="#FFFFFF" d="M208.832,277.582c0.062,1.242,0.439,2.188,1.131,2.835s1.681,0.971,2.967,0.971c0.771,0,1.512-0.122,2.222-0.365c0.709-0.244,1.331-0.557,1.863-0.938v2.595c-0.515,0.337-1.207,0.612-2.076,0.825s-1.788,0.319-2.754,0.319c-2.067,0-3.668-0.619-4.804-1.856s-1.703-2.956-1.703-5.156c0-1.454,0.282-2.728,0.845-3.818c0.563-1.091,1.344-1.94,2.342-2.548c0.998-0.607,2.095-0.912,3.293-0.912c1.88,0,3.342,0.577,4.384,1.73c1.042,1.153,1.563,2.75,1.563,4.79v1.529H208.832z M215.045,275.268c0-1.082-0.253-1.907-0.758-2.475c-0.505-0.568-1.215-0.852-2.129-0.852c-0.834,0-1.557,0.308-2.169,0.924c-0.612,0.617-0.998,1.418-1.158,2.402H215.045z"/>
	<path id="XMLID_64_" fill="#FFFFFF" d="M230.533,282.918c-1.047,0.604-2.337,0.905-3.872,0.905c-1.313,0-2.481-0.284-3.506-0.852c-1.024-0.568-1.823-1.375-2.395-2.422s-0.858-2.218-0.858-3.513c0-1.481,0.295-2.79,0.885-3.926c0.59-1.135,1.446-2.016,2.568-2.641c1.122-0.625,2.423-0.938,3.905-0.938c0.576,0,1.175,0.064,1.796,0.193s1.113,0.295,1.477,0.499v2.914c-1.002-0.728-2.049-1.092-3.14-1.092c-1.277,0-2.313,0.429-3.107,1.284c-0.794,0.856-1.191,1.998-1.191,3.427c0,1.419,0.381,2.532,1.145,3.34c0.763,0.807,1.796,1.211,3.1,1.211c0.47,0,0.998-0.103,1.583-0.307s1.122-0.483,1.61-0.838V282.918z"/>
	<path id="XMLID_66_" fill="#FFFFFF" d="M238.676,272.34v11.15h-3.074v-11.15h-3.752v-2.475h10.578v2.475H238.676z"/>
	<path id="XMLID_68_" fill="#FFFFFF" d="M257.104,276.545c0,2.209-0.639,3.974-1.916,5.295c-1.277,1.322-3.011,1.983-5.202,1.983c-2.103,0-3.777-0.628-5.023-1.883c-1.247-1.256-1.87-2.956-1.87-5.103c0-2.263,0.639-4.045,1.916-5.35c1.277-1.304,3.047-1.956,5.309-1.956c2.129,0,3.792,0.624,4.99,1.87C256.506,272.648,257.104,274.362,257.104,276.545z M253.911,276.651c0-1.508-0.334-2.652-1.004-3.433c-0.67-0.781-1.59-1.172-2.761-1.172c-1.207,0-2.151,0.408-2.834,1.225s-1.024,1.969-1.024,3.459c0,1.446,0.341,2.57,1.024,3.373c0.683,0.804,1.637,1.205,2.861,1.205c1.233,0,2.165-0.396,2.794-1.185C253.596,279.335,253.911,278.177,253.911,276.651z"/>
	<path id="XMLID_71_" fill="#FFFFFF" d="M273.404,276.318c0,2.289-0.563,4.111-1.69,5.469s-2.652,2.036-4.577,2.036c-1.65,0-2.932-0.684-3.845-2.05h-0.053v7.983h-3.074v-19.892h3.074v2.182h0.053c1.082-1.676,2.59-2.515,4.524-2.515c1.738,0,3.104,0.608,4.098,1.823C272.907,272.571,273.404,274.226,273.404,276.318z M270.211,276.266c0-1.313-0.299-2.345-0.898-3.094c-0.599-0.75-1.435-1.125-2.508-1.125s-1.94,0.378-2.601,1.132c-0.661,0.754-0.991,1.729-0.991,2.927v1.743c0,1.003,0.314,1.829,0.944,2.481s1.415,0.979,2.355,0.979c1.171,0,2.08-0.435,2.728-1.305C269.887,279.135,270.211,277.889,270.211,276.266z"/>
	<path id="XMLID_74_" fill="#FFFFFF" d="M289.464,276.545c0,2.209-0.639,3.974-1.916,5.295c-1.277,1.322-3.011,1.983-5.202,1.983c-2.103,0-3.777-0.628-5.023-1.883c-1.247-1.256-1.87-2.956-1.87-5.103c0-2.263,0.639-4.045,1.916-5.35c1.277-1.304,3.047-1.956,5.309-1.956c2.129,0,3.792,0.624,4.99,1.87C288.865,272.648,289.464,274.362,289.464,276.545z M286.271,276.651c0-1.508-0.334-2.652-1.004-3.433c-0.67-0.781-1.59-1.172-2.761-1.172c-1.207,0-2.151,0.408-2.834,1.225s-1.024,1.969-1.024,3.459c0,1.446,0.341,2.57,1.024,3.373c0.683,0.804,1.637,1.205,2.861,1.205c1.233,0,2.165-0.396,2.794-1.185C285.956,279.335,286.271,278.177,286.271,276.651z"/>
	<path id="XMLID_77_" fill="#FFFFFF" d="M301.639,283.49v-5.868h-6.041v5.868h-3.074v-13.625h3.074v5.282h6.041v-5.282h3.073v13.625H301.639z"/>
	<path id="XMLID_79_" fill="#FFFFFF" d="M317.898,283.49v-5.868h-6.041v5.868h-3.073v-13.625h3.073v5.282h6.041v-5.282h3.073v13.625H317.898z"/>
	<path id="XMLID_81_" fill="#FFFFFF" d="M327.185,277.582c0.063,1.242,0.439,2.188,1.131,2.835c0.692,0.647,1.682,0.971,2.968,0.971c0.771,0,1.512-0.122,2.222-0.365c0.71-0.244,1.331-0.557,1.863-0.938v2.595c-0.515,0.337-1.207,0.612-2.076,0.825s-1.787,0.319-2.754,0.319c-2.067,0-3.668-0.619-4.804-1.856s-1.703-2.956-1.703-5.156c0-1.454,0.281-2.728,0.845-3.818s1.344-1.94,2.342-2.548s2.096-0.912,3.293-0.912c1.881,0,3.343,0.577,4.385,1.73s1.563,2.75,1.563,4.79v1.529H327.185z M333.398,275.268c0-1.082-0.253-1.907-0.759-2.475c-0.505-0.568-1.215-0.852-2.129-0.852c-0.833,0-1.557,0.308-2.168,0.924c-0.612,0.617-0.998,1.418-1.158,2.402H333.398z"/>
	<path id="XMLID_84_" fill="#FFFFFF" d="M342.34,272.34v11.15h-3.073v-13.625h7.956v2.475H342.34z"/>
	<path id="XMLID_86_" fill="#FFFFFF" d="M362.02,276.545c0,2.209-0.639,3.974-1.916,5.295c-1.277,1.322-3.012,1.983-5.202,1.983c-2.103,0-3.776-0.628-5.023-1.883c-1.246-1.256-1.869-2.956-1.869-5.103c0-2.263,0.639-4.045,1.916-5.35c1.277-1.304,3.047-1.956,5.31-1.956c2.129,0,3.792,0.624,4.989,1.87S362.02,274.362,362.02,276.545z M358.826,276.651c0-1.508-0.335-2.652-1.004-3.433c-0.67-0.781-1.591-1.172-2.762-1.172c-1.206,0-2.15,0.408-2.834,1.225c-0.683,0.816-1.024,1.969-1.024,3.459c0,1.446,0.342,2.57,1.024,3.373c0.684,0.804,1.637,1.205,2.861,1.205c1.232,0,2.164-0.396,2.794-1.185S358.826,278.177,358.826,276.651z"/>
	<path id="XMLID_89_" fill="#FFFFFF" d="M384.573,276.318c0,2.289-0.563,4.111-1.69,5.469s-2.652,2.036-4.577,2.036c-1.649,0-2.932-0.684-3.846-2.05h-0.053v7.983h-3.073v-19.892h3.073v2.182h0.053c1.083-1.676,2.591-2.515,4.524-2.515c1.738,0,3.104,0.608,4.099,1.823C384.076,272.571,384.573,274.226,384.573,276.318z M381.38,276.266c0-1.313-0.3-2.345-0.898-3.094c-0.599-0.75-1.436-1.125-2.508-1.125c-1.074,0-1.941,0.378-2.602,1.132c-0.661,0.754-0.991,1.729-0.991,2.927v1.743c0,1.003,0.314,1.829,0.944,2.481s1.415,0.979,2.355,0.979c1.171,0,2.08-0.435,2.728-1.305C381.056,279.135,381.38,277.889,381.38,276.266z"/>
	<path id="XMLID_92_" fill="#FFFFFF" d="M394.353,283.49v-1.876H394.3c-0.949,1.473-2.293,2.209-4.032,2.209c-1.339,0-2.395-0.364-3.166-1.092c-0.771-0.727-1.158-1.712-1.158-2.953c0-1.277,0.377-2.302,1.131-3.074c0.754-0.771,1.863-1.251,3.327-1.437l3.979-0.546c0-1.854-0.861-2.78-2.582-2.78c-0.834,0-1.643,0.137-2.428,0.412s-1.483,0.644-2.096,1.104v-2.715c0.487-0.311,1.222-0.59,2.202-0.838c0.979-0.248,1.86-0.373,2.641-0.373c1.748,0,3.063,0.455,3.945,1.364s1.324,2.229,1.324,3.958v8.636H394.353z M388.964,279.459c0,0.585,0.213,1.053,0.639,1.403s0.967,0.525,1.624,0.525c0.913,0,1.667-0.313,2.262-0.938c0.594-0.626,0.892-1.413,0.892-2.362v-1.224l-2.94,0.386c-0.932,0.133-1.577,0.363-1.937,0.691C389.144,278.271,388.964,278.775,388.964,279.459z"/>
	<path id="XMLID_95_" fill="#FFFFFF" d="M399.781,283.131v-2.607c1.438,0.639,2.892,0.958,4.364,0.958c1.092,0,1.928-0.178,2.509-0.532c0.581-0.355,0.871-0.843,0.871-1.464c0-1.277-1.313-1.916-3.938-1.916c-1.011,0-1.689,0.026-2.036,0.08v-2.302c0.533,0.053,1.207,0.079,2.023,0.079c1.055,0,1.887-0.168,2.494-0.505c0.607-0.338,0.912-0.799,0.912-1.385c0-0.505-0.244-0.908-0.732-1.21s-1.176-0.453-2.063-0.453c-1.145,0-2.354,0.284-3.632,0.852v-2.607c1.313-0.399,2.639-0.599,3.978-0.599c1.73,0,3.109,0.339,4.139,1.018c1.028,0.679,1.543,1.586,1.543,2.721c0,0.79-0.257,1.451-0.771,1.982c-0.515,0.533-1.211,0.892-2.089,1.078v0.054c1.1,0.195,1.936,0.581,2.508,1.157c0.572,0.577,0.858,1.313,0.858,2.209c0,1.242-0.555,2.233-1.663,2.974c-1.109,0.74-2.604,1.111-4.484,1.111C402.762,283.823,401.165,283.592,399.781,283.131z"/>
	<path id="XMLID_97_" fill="#FFFFFF" d="M425.408,279.459c0,1.25-0.404,2.235-1.211,2.953c-0.808,0.719-1.921,1.078-3.34,1.078h-7.118v-13.625h6.706c1.463,0,2.574,0.277,3.333,0.832c0.758,0.554,1.138,1.377,1.138,2.468c0,0.798-0.251,1.479-0.752,2.042c-0.501,0.563-1.143,0.925-1.923,1.085c0.976,0.115,1.747,0.459,2.315,1.031C425.124,277.896,425.408,278.607,425.408,279.459z M421.723,273.604c0-0.532-0.169-0.927-0.506-1.185c-0.337-0.257-0.923-0.386-1.757-0.386h-2.647v3.419h2.488c0.771,0,1.368-0.152,1.789-0.459C421.512,274.688,421.723,274.226,421.723,273.604z M422.188,279.459c0-1.26-0.873-1.89-2.621-1.89h-2.754v3.699h2.954c0.807,0,1.412-0.143,1.816-0.426C421.986,280.559,422.188,280.098,422.188,279.459z"/>
	<path id="XMLID_101_" fill="#FFFFFF" d="M438.514,283.49v-9.554l-7.052,9.554h-2.621v-13.625h2.913v9.287l6.84-9.287h2.808v13.625H438.514z"/>
	<path id="XMLID_103_" fill="#FFFFFF" d="M450.555,272.34v11.15h-3.073v-11.15h-3.752v-2.475h10.578v2.475H450.555z"/>
	<path id="XMLID_105_" fill="#FFFFFF" d="M466.309,283.49v-9.554l-7.052,9.554h-2.621v-13.625h2.913v9.287l6.84-9.287h2.808v13.625H466.309z"/>
	<path id="XMLID_107_" fill="#FFFFFF" d="M480.904,283.49v-5.149h-1.503c-0.666,0-1.193,0.157-1.584,0.473c-0.39,0.314-0.718,0.801-0.984,1.457l-1.33,3.22h-3.46l1.637-3.619c0.274-0.639,0.621-1.153,1.038-1.543c0.417-0.391,0.958-0.688,1.623-0.892c-2.253-0.311-3.38-1.521-3.38-3.633c0-1.251,0.464-2.22,1.391-2.907s2.237-1.031,3.932-1.031h5.695v13.625H480.904z M480.904,272.061h-2.075c-0.94,0-1.626,0.162-2.056,0.485c-0.431,0.324-0.646,0.832-0.646,1.524c0,0.754,0.224,1.302,0.672,1.643c0.448,0.342,1.115,0.513,2.003,0.513h2.102V272.061z"/>
</g>
<g id="XMLID_2_">
	<path id="XMLID_23_" fill="#212121" d="M377.706,107.456c0.537-0.473,5.719-4.923,6.294-5.987c-4.414-2.521-15.045-3.978-15.084-4.057c4.491-2.481,7.254-5.987,8.521-9.177c1.151-2.954,1.19-6.814,0.461-7.09c-3.224-0.788-11.13,2.166-15.007,4.411c-0.038-0.079,1.459-6.341-0.844-10.004c-2.725-0.906-10.017,6.538-15.813,7.68c-0.307-2.048-3.262-12.288-5.22-14.415c-2.418,0.433-7.254,6.774-8.674,7.602c-8.214-3.86-13.548-0.118-14.239-0.394c-1.535-0.63-8.521-6.459-23.182,3.072c-1.881,0.315-11.284,0.158-19.459,9.571c-5.297,6.065-5.22,13.628-5.488,13.864c-9.826,7.759-6.448,16.778-6.41,17.487c-0.384,0.827-3.608,6.814-0.115,12.564c-2.495,1.851-6.064,3.82-7.446,6.932c2.111,3.742,10.823,8.389,13.625,8.113c-9.672,5.041-12.09,11.934-12.858,16.503c4.26,2.127,12.819-0.039,14.393-1.142c0.959-0.669,2.303-1.812,3.339-2.442c-5.68,8.035-1.382,20.402-1.382,20.402c5.604-0.315,10.632-7.208,12.32-12.249c0.998,0.512,3.685,4.214,5.45,4.844c0.921-1.418,1.727-2.442,2.61-3.86c1.804-2.915,2.38-6.577,2.418-10.24c0.921,0.394,6.525,4.017,9.826,3.978c0.461-1.064,3.147-14.849-3.531-21.465c0.077,0,8.06,3.426,15.621,0.788c-0.038-0.788-0.115-1.182-0.269-2.087c1.075-0.236,4.222,2.836,6.026,2.324c-0.998-5.041,0.806-7.562-0.461-15.636c0.077-0.039,8.521,10.989,12.704,8.862c-0.653-7.247,0.998-11.067-0.96-19.653c3.186,1.851,6.602,3.505,13.318,3.151c4.145-0.197,8.482-1.93,12.243-3.033c-1.881-4.135-4.337-7.089-7.945-9.649c1.574,0,3.876,1.379,8.098,3.072c0.768,3.545,7.139,9.965,7.139,12.367c0,1.497-1.151,4.057-2.802,4.884c0,0-1.343,1.182-0.345,2.403c0.537,0.433,0.768,0.827,1.228,1.654c0.691,1.103,1.382,2.442,2.111,3.742c2.303,3.939,4.759,9.728,6.678,14.297l0.23,0.551l0.038,0.276l-0.23,0.158c-1.305-0.118-8.597,0.788-10.209,1.418c0.115,1.575,1.343,4.805,2.111,6.577l0.154,1.26c-2.763,3.387-3.608,2.009-0.998,7.641l-0.307,0.433c-0.883,1.497-3.07,2.245-3.032,4.175c-0.154,1.142,2.687,6.144,3.07,7.877c-0.652,0.788-2.687,2.718-3.186,3.584c-8.022-2.875-13.817-5.041-21.685-8.98c-0.844,0.276-1.151,0.788-1.574,1.457c0.23,0.197,0.461,0.355,0.691,0.512c4.068,2.481,23.796,10.437,23.796,10.437c1.036-1.418,5.22-5.514,5.297-7.168c-1.113-2.6-2.111-5.199-3.186-7.759c1.075-1.142,3.186-2.521,3.07-4.175c0.192-1.3-1.574-2.796-1.689-4.096c1.266-0.709,1.881-1.772,2.994-2.6c-0.192-1.418-1.535-4.766-1.267-6.065c0.192-0.315,8.022-1.576,9.71-2.757c-0.153-1.812-1.612-4.451-2.456-6.42c0,0-5.911-12.682-7.753-17.093c0.998-1.497,3.608-5.947,2.84-7.956c-0.614-1.3-5.22-7.365-6.832-9.728C364.349,110.962,374.866,109.977,377.706,107.456 M346.08,116.909c-8.252-0.433-12.781-6.853-14.431-10.831c2.763-1.181,14.661-5.475,24.64,8.704C352.259,115.452,348.997,117.066,346.08,116.909 M321.555,140.068c-1.382,0.039-8.022-6.499-8.712-13.115c-0.269-2.206,0.576-8.468,2.418-10.555c1.228,1.221,2.303,2.481,3.301,3.663C322.322,124.55,320.749,135.972,321.555,140.068 M315.529,140.777c-7.791,2.875-18.423-5.041-18.768-9.886c2.188-0.63,6.525-1.221,8.943-0.748C309.388,130.812,313.188,136.799,315.529,140.777 M303.631,159.958c-2.111,0-15.736-15.242-12.896-22.174c2.149,1.26,4.913,1.182,6.947,3.033c2.802,2.56,6.563,9.098,6.525,13.194C304.206,155.822,303.708,158.146,303.631,159.958 M290.197,169.647c-4.874-7.759-7.523-11.107-5.795-19.417c0.345-1.615,0.768-3.387,1.343-4.49c4.798,3.663,9.058,9.689,7.83,16.542C293.153,164.29,292.117,167.953,290.197,169.647 M274.5,178.705c-1.113-5.002-0.384-10.87,1.075-14.888c0.691-1.891,2.495-4.569,4.529-5.79C283.404,165.826,281.831,175.082,274.5,178.705 M259.646,162.478c-1.113-2.599,13.165-18.236,20.38-14.376c-0.345,1.418-5.911,10.516-11.86,12.525C265.557,161.494,263.331,162.478,259.646,162.478 M259.8,139.595c3.109-4.49,15.429-8.744,24.257-2.245c-7.983,4.884-9.672,7.798-20.457,4.135C262.218,141.053,260.875,140.816,259.8,139.595 M270.93,126.243c0.652-1.615,5.373-4.766,12.973-3.269c4.567,0.866,8.367,4.057,13.241,4.372c-0.729,1.89-9.096,5.356-14.815,4.647C278.875,131.009,273.272,128.134,270.93,126.243 M281.025,114.782c5.373-5.553,18.538-5.75,28.786-1.26c-1.075,1.891-3.147,4.293-5.565,6.105c-1.766,1.378-6.755,1.221-8.098,1.221C290.965,120.926,284.44,118.603,281.025,114.782 M297.106,99.264c10.939-3.505,21.263-0.354,24.756,6.381c-0.269,0.394-4.721,2.442-7.062,3.151C308.889,109.623,300.1,105.684,297.106,99.264 M322.092,79.492c6.41,5.947,8.597,11.343,7.484,19.535c-0.307,2.087-1.036,4.175-2.226,5.632C315.567,98.279,318.331,81.816,322.092,79.492 M324.472,109.623c2.073,1.142,4.491,2.915,6.256,4.923c1.382,1.536,1.842,4.017,2.073,5.356c0.806,4.608-0.499,8.626,0.269,12.997C325.009,130.458,320.326,114.191,324.472,109.623 M342.856,81.659c0.729,5.081-3.378,15.479-6.985,17.527c-1.804-1.3-3.378-5.002-3.953-8.507c-0.422-2.521-0.96-5.396-0.192-7.523c0.806-2.245,6.141-8.941,8.405-10.516C341.244,74.845,342.127,76.578,342.856,81.659 M360.281,78.862c0.844,4.805-4.184,15.794-7.945,19.26c-2.264,2.087-7.177,2.915-8.943,2.481c-0.46-1.615-0.077-6.381,1.19-8.744c2.456-4.687,4.644-5.79,8.29-8.074C355.099,81.895,357.095,80.438,360.281,78.862 M375.326,84.573c-0.614,4.175-5.028,9.098-9.327,11.146c-3.07,1.457-8.252,1.969-9.634,0.867c1.535-1.379,3.646-5.041,4.682-6.577C362.392,88,372.793,83.195,375.326,84.573 M359.59,99.697c6.026-0.354,17.732,2.363,17.847,2.599c-1.766,1.339-3.877,3.663-6.525,4.411c-1.382,0.394-3.147,1.142-4.682,1.103c-2.802-0.118-11.936-2.875-13.74-5.041C353.257,101.706,358.285,99.776,359.59,99.697"/>
	<path id="XMLID_4_" fill="#212121" d="M356.827,135.066c1.497-0.748,2.149-2.718,1.497-4.451c-0.038-0.118-0.115-0.197-0.154-0.315l2.226-0.315l0.499-2.206c-1.535,0.276-3.224,0.433-4.721,0.67c-2.879,0.433-5.949,1.221-9.058,1.497c-1.804,0.197-4.836,0.276-5.949,0.788c-0.038,0.591,0.154,1.536,0.307,2.009l13.664,2.56C355.675,135.42,356.289,135.342,356.827,135.066"/>
</g>
</svg>
