<svg version="1.1" xmlns="http://www.w3.org/2000/svg" xmlns:xlink="http://www.w3.org/1999/xlink" x="0px" y="0px" viewBox="0 0 108 108" enable-background="new 0 0 108 108" xml:space="preserve"><circle fill="#F03B4C" cx="54" cy="54" r="54"/><path id="XMLID_23_" fill="#191919" d="M86.459,40.611c0.302-0.264,3.217-2.754,3.541-3.348c-2.483-1.41-8.463-2.225-8.485-2.269c2.526-1.388,4.08-3.348,4.793-5.133c0.648-1.652,0.669-3.811,0.259-3.965c-1.813-0.441-6.261,1.212-8.441,2.467c-0.022-0.044,0.82-3.547-0.475-5.595c-1.533-0.507-5.635,3.657-8.895,4.296C68.584,25.917,66.921,20.19,65.82,19c-1.36,0.242-4.08,3.789-4.879,4.252c-4.62-2.159-7.621-0.066-8.01-0.22c-0.864-0.352-4.793-3.613-13.04,1.718c-1.058,0.176-6.347,0.088-10.946,5.353c-2.979,3.393-2.936,7.622-3.087,7.754c-5.527,4.34-3.627,9.385-3.605,9.781c-0.216,0.463-2.029,3.811-0.065,7.027c-1.403,1.035-3.411,2.137-4.188,3.877c1.187,2.093,6.088,4.692,7.664,4.538c-5.44,2.82-6.801,6.675-7.232,9.23c2.396,1.19,7.211-0.022,8.096-0.639c0.54-0.375,1.295-1.013,1.878-1.366c-3.195,4.494-0.777,11.411-0.777,11.411c3.152-0.176,5.98-4.031,6.93-6.851c0.561,0.286,2.073,2.357,3.066,2.71c0.518-0.793,0.972-1.366,1.468-2.159c1.015-1.63,1.339-3.679,1.36-5.728c0.518,0.22,3.67,2.247,5.527,2.225c0.259-0.595,1.77-8.305-1.986-12.006c0.043,0,4.534,1.917,8.787,0.441c-0.022-0.441-0.065-0.661-0.151-1.168c0.604-0.132,2.375,1.586,3.39,1.3c-0.561-2.82,0.453-4.23-0.259-8.746c0.043-0.022,4.793,6.146,7.146,4.957c-0.367-4.053,0.561-6.19-0.54-10.993c1.792,1.035,3.713,1.961,7.491,1.762c2.332-0.11,4.771-1.079,6.887-1.696c-1.058-2.313-2.44-3.965-4.469-5.397c0.885,0,2.181,0.771,4.555,1.718c0.432,1.983,4.016,5.573,4.016,6.917c0,0.837-0.648,2.269-1.576,2.732c0,0-0.756,0.661-0.194,1.344c0.302,0.242,0.432,0.463,0.691,0.925c0.389,0.617,0.777,1.366,1.187,2.093c1.295,2.203,2.677,5.441,3.757,7.997l0.13,0.308l0.022,0.154l-0.13,0.088c-0.734-0.066-4.836,0.441-5.743,0.793c0.065,0.881,0.756,2.688,1.187,3.679l0.086,0.705c-1.554,1.895-2.029,1.123-0.561,4.274l-0.173,0.242c-0.497,0.837-1.727,1.256-1.706,2.335c-0.086,0.639,1.511,3.437,1.727,4.406c-0.367,0.441-1.511,1.52-1.792,2.005c-4.512-1.608-7.772-2.82-12.198-5.023c-0.475,0.154-0.648,0.441-0.885,0.815c0.13,0.11,0.259,0.198,0.389,0.286C67.353,80.55,78.45,85,78.45,85c0.583-0.793,2.936-3.084,2.979-4.009c-0.626-1.454-1.187-2.908-1.792-4.34c0.604-0.639,1.792-1.41,1.727-2.335c0.108-0.727-0.885-1.564-0.95-2.291c0.712-0.397,1.058-0.991,1.684-1.454c-0.108-0.793-0.864-2.666-0.712-3.393c0.108-0.176,4.512-0.881,5.462-1.542c-0.086-1.013-0.907-2.489-1.382-3.591c0,0-3.325-7.093-4.361-9.561c0.561-0.837,2.029-3.326,1.598-4.45c-0.345-0.727-2.936-4.119-3.843-5.441C78.946,42.571,84.862,42.021,86.459,40.611 M68.67,45.898c-4.642-0.242-7.189-3.833-8.118-6.058c1.554-0.661,8.247-3.062,13.86,4.868C72.146,45.083,70.311,45.986,68.67,45.898 M54.874,58.851c-0.777,0.022-4.512-3.635-4.901-7.336c-0.151-1.234,0.324-4.736,1.36-5.904c0.691,0.683,1.295,1.388,1.857,2.049C55.306,50.172,54.421,56.56,54.874,58.851 M51.485,59.248c-4.383,1.608-10.363-2.82-10.557-5.529c1.231-0.352,3.67-0.683,5.03-0.419C48.031,53.674,50.168,57.023,51.485,59.248 M44.792,69.976c-1.187,0-8.852-8.525-7.254-12.403c1.209,0.705,2.763,0.661,3.908,1.696c1.576,1.432,3.692,5.089,3.67,7.38C45.116,67.663,44.835,68.963,44.792,69.976 M37.236,75.395c-2.742-4.34-4.231-6.212-3.26-10.86c0.194-0.903,0.432-1.895,0.756-2.511c2.699,2.049,5.095,5.419,4.404,9.252C38.898,72.399,38.315,74.448,37.236,75.395 M28.406,80.462c-0.626-2.798-0.216-6.08,0.605-8.327c0.389-1.057,1.403-2.555,2.548-3.238C33.415,73.258,32.53,78.435,28.406,80.462 M20.051,71.386c-0.626-1.454,7.405-10.2,11.464-8.041c-0.194,0.793-3.325,5.882-6.671,7.005C23.376,70.835,22.124,71.386,20.051,71.386 M20.137,58.587c1.749-2.511,8.679-4.891,13.644-1.256c-4.491,2.732-5.44,4.362-11.507,2.313C21.497,59.402,20.742,59.27,20.137,58.587 M26.398,51.119c0.367-0.903,3.022-2.666,7.297-1.828c2.569,0.485,4.706,2.269,7.448,2.445c-0.41,1.057-5.117,2.996-8.333,2.599C30.867,53.784,27.715,52.176,26.398,51.119 M32.076,44.708c3.022-3.106,10.428-3.216,16.192-0.705c-0.604,1.057-1.77,2.401-3.13,3.415c-0.993,0.771-3.8,0.683-4.555,0.683C37.668,48.145,33.998,46.845,32.076,44.708 M41.122,36.029c6.153-1.961,11.96-0.198,13.925,3.569c-0.151,0.22-2.655,1.366-3.972,1.762C47.75,41.822,42.806,39.619,41.122,36.029 M55.177,24.97c3.605,3.326,4.836,6.344,4.21,10.927c-0.173,1.168-0.583,2.335-1.252,3.15C51.506,35.478,53.061,26.27,55.177,24.97 M56.515,41.822c1.166,0.639,2.526,1.63,3.519,2.754c0.777,0.859,1.036,2.247,1.166,2.996c0.453,2.577-0.281,4.824,0.151,7.27C56.817,53.476,54.184,44.378,56.515,41.822 M66.856,26.182c0.41,2.842-1.9,8.658-3.929,9.803c-1.015-0.727-1.9-2.798-2.224-4.758c-0.237-1.41-0.54-3.018-0.108-4.208c0.453-1.256,3.454-5.001,4.728-5.882C65.95,22.37,66.446,23.34,66.856,26.182 M76.658,24.617c0.475,2.688-2.353,8.834-4.469,10.772c-1.274,1.168-4.037,1.63-5.03,1.388c-0.259-0.903-0.043-3.569,0.669-4.891c1.382-2.621,2.612-3.238,4.663-4.516C73.743,26.314,74.866,25.499,76.658,24.617 M85.121,27.812c-0.345,2.335-2.828,5.089-5.246,6.234c-1.727,0.815-4.642,1.101-5.419,0.485c0.864-0.771,2.051-2.82,2.634-3.679C77.845,29.728,83.696,27.041,85.121,27.812 M76.269,36.271c3.39-0.198,9.974,1.322,10.039,1.454c-0.993,0.749-2.181,2.049-3.67,2.467c-0.777,0.22-1.77,0.639-2.634,0.617c-1.576-0.066-6.714-1.608-7.729-2.82C72.707,37.395,75.535,36.315,76.269,36.271"></path><path id="XMLID_1_" fill="#191919" d="M74.715,56.053c0.842-0.419,1.209-1.52,0.842-2.489c-0.022-0.066-0.065-0.11-0.086-0.176l1.252-0.176l0.281-1.234c-0.864,0.154-1.813,0.242-2.655,0.375c-1.619,0.242-3.346,0.683-5.095,0.837c-1.015,0.11-2.72,0.154-3.346,0.441c-0.022,0.33,0.086,0.859,0.173,1.124l7.686,1.432C74.067,56.252,74.413,56.208,74.715,56.053"></path></svg>