<?xml version="1.0" encoding="utf-8"?>
<!-- Generator: Adobe Illustrator 19.0.0, SVG Export Plug-In . SVG Version: 6.00 Build 0)  -->
<svg version="1.1"  xmlns="http://www.w3.org/2000/svg" xmlns:xlink="http://www.w3.org/1999/xlink" x="0px" y="0px"
	 viewBox="0 0 640 360" enable-background="new 0 0 640 360" xml:space="preserve">
<rect id="XMLID_1_" fill="#4285F4" width="640" height="360"/>
<path fill="#FFFFFF" d="M395.049,100H244.972c-7.484,0-13.551,6.067-13.551,13.551l0,0v132.897c0,7.484,6.067,13.551,13.551,13.551
	l0,0h118.679l43.494-45.408l1.434-101.048C408.575,106.071,402.522,100.012,395.049,100z M258.76,124.601
	c0-4.328,3.509-7.837,7.837-7.837s7.837,3.509,7.837,7.837c0,4.328-3.509,7.837-7.837,7.837c-4.325-0.004-7.83-3.512-7.83-7.837
	H258.76z M321.635,214.943c-1.409,3.008-3.466,5.667-6.023,7.787c-2.626,2.131-5.647,3.719-8.891,4.675
	c-3.516,1.054-7.17,1.578-10.841,1.556c-3.817,0.05-7.616-0.534-11.243-1.728c-3.21-1.06-6.147-2.813-8.604-5.134
	c-2.421-2.343-4.283-5.2-5.449-8.36c-1.314-3.62-1.917-7.459-1.778-11.307h9.751c0.153,5.306,1.683,9.632,4.589,12.978
	c2.906,3.346,7.151,5.019,12.734,5.019c2.301,0.011,4.589-0.359,6.769-1.097c2.051-0.679,3.957-1.734,5.621-3.112
	c3.422-2.867,5.363-7.13,5.277-11.594c0.044-2.323-0.426-4.627-1.377-6.747c-0.866-1.891-2.116-3.581-3.671-4.962
	c-1.584-1.374-3.441-2.395-5.449-2.997c-2.213-0.669-4.514-1.001-6.826-0.982c-1.956-0.007-3.91,0.108-5.851,0.344v-8.303
	c0.34,0.072,0.685,0.111,1.032,0.115h3.212c2.002,0.008,3.993-0.284,5.908-0.868c1.787-0.533,3.46-1.394,4.933-2.538
	c1.429-1.132,2.585-2.57,3.384-4.209c0.86-1.788,1.292-3.752,1.262-5.736c0-4.383-1.377-7.672-4.13-9.866
	c-2.753-2.194-6.195-3.291-10.325-3.291c-2.355-0.055-4.692,0.436-6.826,1.434c-1.879,0.905-3.527,2.227-4.818,3.865
	c-1.296,1.682-2.25,3.602-2.811,5.65c-0.621,2.214-0.929,4.505-0.918,6.804h-9.751c0.101-3.658,0.739-7.282,1.893-10.755
	c1.011-3.06,2.631-5.884,4.761-8.303c2.145-2.362,4.79-4.214,7.744-5.421c3.417-1.37,7.074-2.039,10.755-1.965
	c3.316-0.027,6.619,0.42,9.809,1.326c2.864,0.797,5.544,2.149,7.887,3.979c2.257,1.82,4.047,4.153,5.22,6.804
	c1.327,3.096,1.973,6.441,1.893,9.809c0.052,3.536-1.079,6.988-3.212,9.809c-2.085,2.798-4.849,5.019-8.03,6.453v0.229
	c4.971,1.076,8.661,3.42,11.071,7.034c2.455,3.811,3.704,8.274,3.585,12.806c0.077,3.73-0.693,7.43-2.251,10.82L321.635,214.943z
	 M363.114,227.692h-9.751v-58.601h-21.116v-7.844c2.69,0.004,5.375-0.209,8.03-0.638c2.47-0.379,4.856-1.18,7.055-2.366
	c2.109-1.159,3.932-2.776,5.335-4.732c1.564-2.277,2.584-4.882,2.983-7.615h7.457v81.789L363.114,227.692z M371.481,132.416
	c-4.328,0-7.837-3.509-7.837-7.837s3.509-7.837,7.837-7.837c4.328,0,7.837,3.509,7.837,7.837c0.012,4.328-3.487,7.847-7.815,7.858
	c-0.005,0-0.01,0-0.014,0L371.481,132.416z"/>
</svg>
