<svg version="1.1" xmlns="http://www.w3.org/2000/svg" xmlns:xlink="http://www.w3.org/1999/xlink" x="0px" y="0px" viewBox="0 0 640 360" enable-background="new 0 0 640 360" xml:space="preserve"><rect id="XMLID_1_" fill="#2787F5" width="640" height="360"/><path id="XMLID_2_" fill="#FFFFFF" d="M414.934,128.99c1.383-4.606,0-7.99-6.584-7.99h-21.771c-5.536,0-8.088,2.924-9.472,6.147c0,0-11.071,26.944-26.755,44.445c-5.074,5.066-7.381,6.678-10.149,6.678c-1.384,0-3.387-1.612-3.387-6.217V128.99c0-5.527-1.606-7.99-6.22-7.99h-34.211c-3.459,0-5.54,2.565-5.54,4.996c0,5.239,7.841,6.448,8.65,21.186v32.01c0,7.018-1.269,8.29-4.037,8.29c-7.38,0-25.333-27.064-35.981-58.032c-2.087-6.019-4.18-8.451-9.744-8.451h-21.771c-6.22,0-7.464,2.924-7.464,6.147c0,5.757,7.381,34.313,34.366,72.08C272.856,225.019,298.203,239,321.267,239c13.839,0,15.55-3.105,15.55-8.454v-19.493c0-6.211,1.311-7.45,5.693-7.45c3.229,0,8.764,1.612,21.681,14.047c14.761,14.738,17.195,21.35,25.498,21.35h21.771c6.22,0,9.33-3.105,7.536-9.233c-1.963-6.108-9.011-14.969-18.363-25.473c-5.074-5.987-12.686-12.435-14.992-15.66c-3.229-4.145-2.306-5.987,0-9.672C385.641,178.962,412.166,141.656,414.934,128.99z"/></svg>