<svg version="1.1" xmlns="http://www.w3.org/2000/svg" x="0px" y="0px" viewBox="0 0 108 108" width="108px" height="108px" enable-background="new 0 0 108 108"><rect fill="none" width="108" height="108"/><rect fill="none" width="108" height="108"/><circle fill="#F03B4C" cx="54" cy="54" r="54"/><g><path fill="#191919" d="M39.078,69.872h0.168v0.165h0.168v0.165h0.168v0.165h0.168v0.165h0.168v0.165h0.168v0.165h0.168v0.165h0.168v0.165h0.168v0.165h0.168v0.165h0.168v0.165h0.168v0.165h0.168v0.165h0.168v0.165h0.168v0.165h0.168v0.165h0.168v0.165h0.168v0.165h0.168v0.165h0.168v0.165h0.168v0.165h0.168v0.165h0.168v0.165h0.168v0.165h0.168V74h0.168v0.165h0.168v0.165h0.168v0.165h0.335v0.165h0.168v0.165h0.335v0.165h1.677v-0.165h0.335V74.66H46.8v-0.165h0.168V74.33h0.168v-0.165h0.168v-0.33h0.168v-0.33h0.168v-0.826h0.168v-0.826h0.168v-0.826h0.168v-0.826h0.168v-0.826h0.168v-0.826h0.168v-0.826h0.168v-0.826h0.168v-0.33h10.06v0.33h0.168v0.826h0.168v0.826h0.168v0.826h0.168v0.826h0.168v0.826h0.168v0.826h0.168v0.826h0.168v0.826h0.168v0.33h0.168v0.33h0.168v0.165h0.168v0.165h0.168v0.165h0.168v0.165h0.335v0.165h1.677v-0.165h0.335V74.66h0.168v-0.165h0.335V74.33h0.168v-0.165h0.168V74h0.168v-0.165h0.168V73.67h0.168v-0.165h0.168V73.34h0.168v-0.165h0.168V73.01h0.168v-0.165h0.168V72.68h0.168v-0.165h0.168V72.35h0.168v-0.165h0.168V72.02h0.168v-0.165h0.168V71.69h0.168v-0.165h0.168V71.36h0.168v-0.165h0.168V71.03h0.168v-0.165h0.168V70.7h0.168v-0.165h0.168V70.37h0.168v-0.165h0.168V70.04h0.168v-0.165h0.168v10.734h-0.168v0.165h-0.168v0.165h-0.168v0.165h-0.168v0.165H68.11v0.165h-0.168v0.165h-0.168v0.165h-0.168v0.165h-0.168v0.165H67.27v0.165h-0.168v0.165h-0.168v0.165h-0.168v0.165h-0.168v0.165H66.43v0.165h-0.168v0.165h-0.168v0.165h-0.168v0.165h-0.168v0.165H65.59v0.165h-0.168v0.165h-0.168v0.165h-0.168v0.165h-0.168v0.165H64.75v0.165h-0.168v0.165h-0.168v0.165h-0.168v0.165h-0.168v0.165H63.91v0.165h-0.168v0.165h-0.168v0.165h-0.168v0.165h-0.168v0.165H63.07v0.165h-0.168v0.165h-0.168v0.165h-0.168v0.165h-0.168v0.165H62.23v0.165h-0.168v0.165h-0.168v0.165h-0.168v0.165H46.301v-0.165h-0.168v-0.165h-0.168v-0.165h-0.168v-0.165h-0.168v-0.165h-0.168v-0.165h-0.168v-0.165h-0.168v-0.165h-0.168v-0.165h-0.168v-0.165h-0.168v-0.165h-0.168v-0.165h-0.168v-0.165h-0.168v-0.165h-0.168v-0.165h-0.168v-0.165h-0.168v-0.165h-0.168v-0.165h-0.168v-0.165h-0.168v-0.165h-0.168v-0.165h-0.168v-0.165h-0.168v-0.165h-0.168v-0.165h-0.168v-0.165h-0.168v-0.165h-0.168v-0.165h-0.168v-0.165h-0.168v-0.165h-0.168v-0.165h-0.168v-0.165h-0.168v-0.165h-0.168v-0.165h-0.168v-0.165h-0.168v-0.165h-0.168v-0.165h-0.168v-0.165h-0.168v-0.165h-0.168v-0.165h-0.168v-0.165h-0.168v-0.165h-0.168v-0.165h-0.168v-0.165h-0.168L39.078,69.872L39.078,69.872z M46.623,62.44H46.12v0.165h-0.168v0.165h-0.335v0.165h-0.168V63.1h-0.168v0.33h-0.168v0.33h-0.168v0.826h-0.168v0.826h-0.168v0.826h-0.168v0.826h-0.168v0.826h-0.168v0.661h-0.168v-0.165h-0.168v-0.165h-0.168v-0.165h-0.168v-0.165h-0.168v-0.165h-0.168v-0.165h-0.168v-0.165h-0.168v-0.165h-0.168v-0.165h-0.168v-0.165h-0.168v-0.165h-0.168v-0.165h-0.168v-0.165h-0.168v-0.165h-0.168v-0.165h-0.168v-0.165h-0.168v-0.165h-0.168v-0.165h-0.168v-0.165h-0.168v-0.165h-0.168v-0.165h-0.168v-0.165h-0.168v-0.165h-0.168v-0.165h-0.168v-0.165h-0.168v-0.165h-0.168v-0.165h-0.168v-0.165h-0.168v-0.165h-0.168V49.729h2.347v0.165h0.168v0.661h0.168v0.33h0.168v0.33h0.168v0.165h0.168v0.165h0.168v0.165h0.168v0.165h0.335v0.165h0.335v0.165h1.677V52.04h0.335v-0.165h0.335V51.71h0.168v-0.165h0.168V51.38h0.168v-0.165h0.168V51.05h0.168v-0.33h0.168v-0.661h0.168v-0.33h2.515v12.55h-2.683v0.161H46.623z M39.078,40.972h0.503v0.165h0.838v0.165h1.341v-0.165h1.006v-0.165h0.503v-0.165h0.335v-0.165h0.503v-0.165h0.168v-0.165h0.335v-0.165h0.168v-0.165h0.335v-0.165h0.168v-0.165h0.335v0.165h0.168v0.165h0.168v0.165h0.335v0.165h0.168v0.165h0.335v0.165h0.335v0.165h0.503v0.165h0.503v0.165h1.006v0.165h1.174v-0.165h1.006v-0.165h0.503v-0.165h0.503v-0.165h0.335v-0.165h0.335v-0.165h0.168v-0.165h0.335v-0.165h0.168v-0.165h0.168v-0.165h0.335v0.165h0.168v0.165h0.168v0.165h0.335v0.165h0.168v0.165h0.335v0.165h0.335v0.165h0.503v0.165h0.503v0.165h1.006v0.165h1.174v-0.165h1.006v-0.165h0.503v-0.165h0.503v-0.165h0.335v-0.165h0.335v-0.165h0.168v-0.165h0.335v-0.165h0.168v-0.165h0.168v-0.165h0.335v0.165h0.168v0.165h0.168v0.165h0.335v0.165h0.335v0.165h0.168v0.165h0.503v0.165h0.335v0.165h0.503v0.165h1.006v0.165h1.341v-0.165h0.838v-0.165h0.503v4.459H58.358v0.165h-0.335v0.165h-0.168v0.165h-0.168v0.165h-0.168v0.165h-0.168v0.165h-0.168v0.33h-0.168v1.651h0.168v0.33h0.168v0.165h0.168v0.165h0.168v0.165h0.168v0.165h0.335v0.165h0.503v0.165h2.515v0.495h0.168v0.495h0.168v0.33h0.168v0.165h0.168v0.165h0.168v0.165h0.168v0.165h0.168v0.165h0.335v0.165h0.335v0.165h1.677v-0.165h0.335v-0.165h0.335v-0.165h0.168v-0.165h0.168v-0.165h0.168v-0.165h0.168v-0.33h0.168v-0.33h0.168v-0.661h0.168v-0.165h2.347v14.037h-0.168v0.165h-0.168v0.165H68.42v0.165h-0.168v0.165h-0.168v0.165h-0.168v0.165h-0.168v0.165H67.58v0.165h-0.168v0.165h-0.168v0.165h-0.168v0.165h-0.168v0.165H66.74v0.165h-0.168v0.165h-0.168v0.165h-0.168v0.165h-0.168v0.165H65.9v0.165h-0.168v0.165h-0.168v0.165h-0.168v0.165h-0.168v0.165H65.06v0.165h-0.168v0.165h-0.168v0.165h-0.168v0.165h-0.168v0.165H64.22v0.165h-0.168v0.165h-0.168v-0.661h-0.168v-0.826h-0.168V66.23H63.38v-0.826h-0.168v-0.826h-0.168v-0.826h-0.168v-0.33h-0.168v-0.33H62.54v-0.165h-0.168v-0.165h-0.335v-0.165h-0.168v-0.165h-0.503v-0.165h-7.713V47.074h-0.168v-0.495h-0.168v-0.165h-0.168v-0.33h-0.168v-0.165h-0.168v-0.165h-0.335v-0.165h-0.335v-0.165H39.065v-4.452H39.078z M36.228,32.881h-0.503v0.165h-0.168v0.165h-0.168v0.165h-0.168v0.165h-0.168v0.165h-0.168v0.33h-0.168v0.826h-0.168v27.083h-0.168V61.78h-0.168v-0.165h-0.335V61.45H33.71v-0.165h-0.168V61.12h-0.168v-0.165h-0.168V60.79h-0.168v-0.165H32.87V60.46h-0.168v-0.165h-0.168V60.13h-0.168V59.8h-0.168v-0.165H32.03V59.47h-0.168v-0.33h-0.168v-0.33h-0.168v-0.33h-0.168v-0.33H31.19v-0.495h-0.168V57.16h-0.168v-0.661h-0.168v-0.826h-0.168v-1.321H30.35V43.948h0.168v-5.284h0.168v-1.651h0.168v-1.156h0.168v-0.826h0.168V34.37h0.168v-0.495h0.168V33.38h0.168v-0.495h0.168v-0.33h0.168V32.06h0.168v-0.33h0.168v-0.165h0.168v-0.33h0.168v-0.33h0.168V30.74h0.168v-0.33h0.168v-0.165h0.168V30.08h0.168v-0.33h0.168v-0.165h0.168V29.42h0.168v-0.165h0.168V29.09h0.168v-0.165h0.168V28.76h0.168v-0.165h0.335V28.43h0.168v-0.165h0.168V28.1h0.335v-0.165h0.168V27.77h0.335v-0.165h0.168V27.44h0.335v-0.165h0.335V27.11H37.4v-0.165h0.335V26.78h0.335v-0.165h0.335V26.45h0.503v-0.165h0.335V26.12h0.503v-0.165h0.503V25.79h0.671v-0.165h0.671V25.46h0.671v-0.165H43.1V25.13h0.838v-0.165h1.174V24.8h1.341v-0.165h1.844V24.47h3.186v-0.165h5.03v0.165h3.186v0.165h1.844V24.8h1.341v0.165h1.174v0.165h0.838v0.165h0.838v0.165h0.671v0.165h0.671v0.165h0.671v0.165h0.503v0.165h0.503v0.165h0.335v0.165h0.503v0.165h0.335v0.165h0.335v0.165h0.335v0.165h0.335v0.165h0.335v0.165h0.335v0.165h0.168v0.165h0.335v0.165h0.168V28.1h0.335v0.165h0.168v0.165h0.168v0.165h0.335v0.165h0.168v0.165h0.168v0.165h0.168v0.165h0.168v0.165h0.168v0.165h0.168v0.33h0.168v0.165h0.168v0.165h0.168v0.165h0.168v0.33h0.168v0.165h0.168v0.33h0.168v0.33h0.168v0.33h0.168v0.33h0.168v0.33h0.168v0.33h0.168v0.495h0.168v0.495h0.168v0.661h0.168v0.661h0.168v0.826h0.168v0.991h0.168v1.651h0.168v7.266h0.168v8.422h-0.168v1.321H77.31V56.5h-0.168v0.661h-0.168v0.495h-0.168v0.495h-0.168v0.33H76.47v0.33h-0.168v0.33h-0.168v0.165h-0.168v0.33h-0.168v0.165H75.63v0.33h-0.168v0.165h-0.168v0.165h-0.168v0.165h-0.168v0.165H74.79v0.165h-0.168v0.165h-0.168v0.165h-0.168v0.165h-0.168v0.165h-0.335v0.165h-0.168v0.165H73.28V34.038h-0.168v-0.33h-0.168v-0.165h-0.168v-0.165h-0.168v-0.165H72.44v-0.165h-0.168v-0.165h-0.503v-0.165h-1.341v0.165h-0.335v0.165h-0.168v0.165H69.59v0.165h-0.168v0.33h-0.168v0.33h-0.168v0.495h-0.168v0.991H68.75v0.33h-0.168v0.33h-0.168v0.165h-0.168v0.165h-0.168v0.165h-0.335v0.165h-1.677v-0.165h-0.335v-0.165h-0.168v-0.165h-0.168v-0.165h-0.168v-0.165h-0.168v-0.33h-0.168v-0.495h-0.168v-0.991h-0.168v-0.495h-0.168v-0.165h-0.168v-0.165h-0.168v-0.165h-0.168v-0.165h-0.335v-0.165h-0.335v-0.165h-1.341v0.165h-0.335v0.165h-0.335v0.165h-0.168v0.165h-0.168v0.165h-0.168v0.33H60.53v0.495h-0.168v1.156h-0.168v0.33h-0.168v0.33h-0.168v0.165H59.69v0.165h-0.335v0.165H59.02v0.165h-1.509v-0.165h-0.335v-0.165h-0.335v-0.165h-0.168v-0.33h-0.168v-0.165h-0.168v-0.495h-0.168v-1.156h-0.168v-0.33h-0.168v-0.33h-0.168v-0.165h-0.168v-0.165h-0.168v-0.165h-0.335v-0.165h-0.335v-0.165h-1.341v0.165h-0.335v0.165h-0.335v0.165H52.48v0.165h-0.168v0.165h-0.168v0.33h-0.168v0.33h-0.168v1.156H51.64v0.495h-0.168v0.165h-0.168v0.33h-0.168v0.165h-0.335v0.165h-0.335v0.165h-1.677v-0.165h-0.168v-0.165h-0.335v-0.165h-0.168v-0.165H47.95v-0.33h-0.168v-0.33h-0.168v-1.156h-0.168v-0.495h-0.168v-0.165H47.11v-0.33h-0.168v-0.165h-0.168v-0.165h-0.335v-0.165h-0.335v-0.165h-1.341v0.165h-0.335v0.165h-0.335v0.165h-0.168v0.165h-0.168v0.165h-0.168v0.165h-0.168v0.33h-0.168v1.156h-0.168v0.495h-0.168v0.33h-0.168v0.165h-0.168v0.165h-0.168v0.165h-0.168v0.165H41.91v0.165h-1.677v-0.165h-0.335v-0.165H39.73v-0.165h-0.168v-0.165h-0.168v-0.33h-0.168v-0.33h-0.168v-0.991H38.89v-0.495h-0.168v-0.33h-0.168v-0.33h-0.168v-0.165h-0.335v-0.165h-0.168v-0.165H37.38v-0.165h-1.174v0.163H36.228z M50.647,20.165h-2.683v0.165H46.12v0.165h-1.341v0.165h-1.174v0.165h-1.006v0.165h-0.671v0.165H41.09v0.165h-0.671v0.165h-0.671v0.165h-0.503v0.165h-0.671v0.165h-0.503v0.165h-0.503v0.165h-0.335v0.165H36.73v0.165h-0.335v0.165H36.06v0.165h-0.503v0.165h-0.335V23.3h-0.335v0.165h-0.168v0.165h-0.335v0.165h-0.335v0.165h-0.335v0.165h-0.168v0.165h-0.335v0.165h-0.168v0.165h-0.335v0.165H32.54v0.165h-0.168v0.165h-0.335v0.165h-0.168v0.165h-0.168v0.165h-0.168v0.165h-0.168v0.165h-0.168v0.165h-0.168v0.165h-0.168v0.165h-0.168V26.6h-0.168v0.165h-0.168v0.165h-0.168v0.165h-0.168v0.165h-0.168v0.33h-0.168v0.165h-0.168v0.165h-0.168v0.33h-0.168v0.165h-0.168v0.33h-0.168v0.33h-0.168v0.165h-0.168v0.33h-0.168v0.33h-0.168v0.33h-0.168v0.33h-0.168v0.495h-0.168v0.495h-0.168v0.33h-0.168v0.495h-0.168v0.661h-0.168v0.661h-0.168v0.661h-0.168v0.991h-0.168v1.156h-0.168V38h-0.168v3.303H26v13.541h0.168v1.321h0.168v0.991h0.168v0.661h0.168v0.661h0.168v0.495h0.168v0.495h0.168v0.33h0.168v0.33h0.168v0.495h0.168v0.33h0.168v0.165h0.168v0.33h0.168v0.33h0.168v0.165h0.168v0.33h0.168v0.165h0.168v0.165h0.168v0.33h0.168v0.165h0.168v0.165h0.168v0.165h0.168v0.165h0.168v0.165h0.168v0.165H30.2v0.165h0.168v0.165h0.168v0.165h0.168v0.165h0.168v0.165h0.168v0.165h0.335v0.165h0.168v0.165h0.168v0.165h0.335v0.165h0.168v0.165h0.335v0.165h0.168v0.165h0.335v0.165h0.335v0.165h0.335v0.165h0.335v0.165h0.335v0.165h0.168v14.532h0.168v0.826h0.168v0.33h0.168v0.165h0.168v0.165H35.4v0.165h0.168v0.165h0.168v0.165h0.168v0.165h0.168v0.165h0.168v0.165h0.168v0.165h0.168v0.165h0.168v0.165h0.168v0.165h0.168v0.165h0.168v0.165h0.168v0.165h0.168v0.165h0.168v0.165h0.168v0.165h0.168v0.165h0.168v0.165h0.168v0.165h0.168v0.165h0.168v0.165h0.168v0.165h0.168v0.165h0.168v0.165h0.168v0.165H39.6v0.165h0.168v0.165h0.168v0.165h0.168v0.165h0.168v0.165h0.168v0.165h0.168v0.165h0.168v0.165h0.168v0.165h0.168v0.165h0.168v0.165h0.168v0.165h0.168v0.165h0.168v0.165h0.168v0.165h0.168v0.165h0.168v0.165h0.168v0.165h0.168v0.165h0.168v0.165h0.168v0.165h0.168v0.165h0.168v0.165h0.168v0.165h0.168v0.165H43.8v0.165h0.168v0.165h0.168v0.165h0.335v0.165h0.503V92h18.108v-0.165h0.503V91.67h0.335v-0.165h0.168V91.34h0.168v-0.165h0.168V91.01h0.168v-0.165h0.168V90.68h0.168v-0.165h0.168V90.35h0.168v-0.165h0.168V90.02H65.6v-0.165h0.168V89.69h0.168v-0.165h0.168V89.36h0.168v-0.165h0.168V89.03h0.168v-0.165h0.168V88.7h0.168v-0.165h0.168V88.37h0.168v-0.165h0.168V88.04h0.168v-0.165h0.168V87.71h0.168v-0.165h0.168V87.38h0.168v-0.165h0.168V87.05h0.168v-0.165h0.168V86.72h0.168v-0.165h0.168V86.39h0.168v-0.165h0.168V86.06h0.168v-0.165H69.8V85.73h0.168v-0.165h0.168V85.4h0.168v-0.165h0.168V85.07h0.168v-0.165h0.168V84.74h0.168v-0.165h0.168V84.41h0.168v-0.165h0.168V84.08h0.168v-0.165h0.168V83.75h0.168v-0.165h0.168V83.42h0.168v-0.165h0.168V83.09h0.168v-0.165h0.168V82.76h0.168v-0.33h0.168v-0.165h0.168V67.072h0.168v-0.165h0.168v-0.165h0.335v-0.165h0.335v-0.165h0.335v-0.165h0.335v-0.165h0.335v-0.165h0.168v-0.165h0.335v-0.165h0.168v-0.165h0.335v-0.165h0.168v-0.165h0.168v-0.165h0.335v-0.165h0.168v-0.165h0.168v-0.165h0.168v-0.165h0.168v-0.165h0.168v-0.165h0.168v-0.165h0.168v-0.165h0.168v-0.165h0.168v-0.165h0.168v-0.165h0.168v-0.165h0.168v-0.33H79.2v-0.165h0.168v-0.165h0.168v-0.33h0.168v-0.165h0.168v-0.33h0.168v-0.33h0.168v-0.33h0.168v-0.165h0.168v-0.495h0.168v-0.33h0.168v-0.33h0.168v-0.495h0.168v-0.495h0.168V57.83h0.168v-0.826h0.168v-0.826h0.168v-1.486H82V41.481h-0.168V38h-0.168v-1.486h-0.168v-1.156h-0.168v-0.826H81.16v-0.826h-0.168v-0.661h-0.168V32.55h-0.168v-0.661h-0.168v-0.33H80.32v-0.495h-0.168v-0.33h-0.168v-0.495h-0.168v-0.33h-0.168v-0.33H79.48v-0.33h-0.168v-0.165h-0.168v-0.33h-0.168v-0.33h-0.168v-0.165H78.64v-0.33h-0.168v-0.165h-0.168v-0.165h-0.168v-0.165h-0.168v-0.33H77.8v-0.165h-0.168v-0.165h-0.168v-0.165h-0.168v-0.165h-0.168v-0.165H76.96v-0.165h-0.168v-0.165h-0.168v-0.165h-0.168v-0.165h-0.168v-0.165H76.12v-0.165h-0.168v-0.165h-0.335v-0.165h-0.168v-0.165h-0.168v-0.165h-0.335v-0.165h-0.168v-0.165h-0.335v-0.165h-0.168v-0.165H73.94v-0.165h-0.335v-0.165H73.27v-0.165h-0.168v-0.165h-0.335v-0.165h-0.335v-0.165h-0.503v-0.165h-0.335v-0.165h-0.335v-0.165h-0.503v-0.165h-0.335v-0.165h-0.503v-0.165h-0.503v-0.165h-0.671v-0.165h-0.503v-0.165H67.57v-0.165h-0.671v-0.165h-0.838v-0.165H65.39v-0.165h-1.006v-0.165H63.21v-0.165h-1.341v-0.165h-1.844v-0.165h-2.683V20h-6.707v0.165H50.647z"></path></g></svg>